<?xml version="1.0" encoding="UTF-8"?>
<svg version="1.1" xmlns="http://www.w3.org/2000/svg" width="261" height="223">
<path d="M0 0 C1.22589844 -0.02835938 2.45179687 -0.05671875 3.71484375 -0.0859375 C7.0625 0.375 7.0625 0.375 9.42578125 2.0390625 C11.3525332 4.7889376 11.83956209 6.81443463 12.3125 10.125 C12.46203125 11.10984375 12.6115625 12.0946875 12.765625 13.109375 C12.86359375 13.85703125 12.9615625 14.6046875 13.0625 15.375 C15.78538362 16.18255865 18.50918608 16.94570981 21.25 17.6875 C22.01892578 17.92017578 22.78785156 18.15285156 23.58007812 18.39257812 C25.82602017 18.98057153 27.73894861 19.41072513 30.0625 19.375 C33.09705806 17.24253856 33.09705806 17.24253856 35.0625 14.375 C36.99926954 12.0171936 37.79614955 11.44833187 40.80078125 10.62109375 C44.76368285 10.32209638 46.42142542 11.1875154 49.8125 13.1875 C50.75609375 13.73019531 51.6996875 14.27289063 52.671875 14.83203125 C55.0625 16.375 55.0625 16.375 57.0625 18.375 C57.07421875 20.51171875 57.07421875 20.51171875 56.75 23.0625 C56.65074219 23.95839844 56.55148438 24.85429688 56.44921875 25.77734375 C56.0625 28.375 56.0625 28.375 55.0625 32.125 C54.70362603 35.34563066 54.70362603 35.34563066 56.55859375 37.06640625 C58.47079659 38.7045257 58.47079659 38.7045257 60.49609375 40.11328125 C61.01300781 40.52964844 61.52992188 40.94601563 62.0625 41.375 C62.0625 42.035 62.0625 42.695 62.0625 43.375 C62.83215088 43.36452637 63.60180176 43.35405273 64.39477539 43.34326172 C101.95201899 42.89959484 101.95201899 42.89959484 107.68359375 47.4609375 C110.47836462 50.88441709 112.31692968 54.3310687 114.1875 58.3125 C114.52136719 59.00279297 114.85523438 59.69308594 115.19921875 60.40429688 C115.85190366 61.75445879 116.50081156 63.10645457 117.14550781 64.46044922 C118.41726703 67.11570368 119.73767043 69.74591275 121.0625 72.375 C121.68125 71.6634375 121.68125 71.6634375 122.3125 70.9375 C125.60343866 67.99916191 129.36924504 68.23841971 133.625 68.25 C134.57503906 68.24742188 135.52507812 68.24484375 136.50390625 68.2421875 C139.0625 68.375 139.0625 68.375 142.0625 69.375 C143.10093754 72.58471602 143.1059078 74.23030734 142.125 77.5 C139.34678478 81.37266364 136.52024297 82.12575348 132.0625 83.375 C131.0725 83.705 130.0825 84.035 129.0625 84.375 C129.65417969 85.0040625 130.24585938 85.633125 130.85546875 86.28125 C131.64566406 87.1371875 132.43585938 87.993125 133.25 88.875 C134.02730469 89.7103125 134.80460938 90.545625 135.60546875 91.40625 C141.36519594 98.36553881 143.81190463 103.24720307 143.875 112.375 C143.90013672 113.24511719 143.92527344 114.11523438 143.95117188 115.01171875 C144.00943062 117.13233699 144.03897765 119.25371207 144.0625 121.375 C144.7225 121.375 145.3825 121.375 146.0625 121.375 C148.0625 123.375 148.0625 123.375 148.29296875 125.58203125 C148.27878906 126.44183594 148.26460937 127.30164063 148.25 128.1875 C148.24033203 129.46560547 148.24033203 129.46560547 148.23046875 130.76953125 C148.0625 133.375 148.0625 133.375 147.546875 135.6953125 C146.77527867 139.96398251 147.05951495 144.26061807 147.18945312 148.58007812 C147.29763833 155.35756325 147.29763833 155.35756325 145.0625 158.375 C138.8849385 161.12058289 131.70551113 161.15702536 125.0625 160.375 C122.21484375 159.140625 122.21484375 159.140625 120.0625 157.375 C119.35546875 155.18359375 119.35546875 155.18359375 119.25 152.8125 C119.17845703 151.63494141 119.17845703 151.63494141 119.10546875 150.43359375 C119.07723516 149.08094798 119.0625 147.7279404 119.0625 146.375 C82.4325 146.375 45.8025 146.375 8.0625 146.375 C7.7325 149.675 7.4025 152.975 7.0625 156.375 C2.5547426 159.75581805 2.5547426 159.75581805 -1.6328125 159.7734375 C-2.51324219 159.77730469 -3.39367187 159.78117188 -4.30078125 159.78515625 C-5.21214844 159.77355469 -6.12351562 159.76195312 -7.0625 159.75 C-7.98160156 159.76160156 -8.90070313 159.77320313 -9.84765625 159.78515625 C-10.72550781 159.78128906 -11.60335937 159.77742187 -12.5078125 159.7734375 C-13.30977051 159.77005371 -14.11172852 159.76666992 -14.93798828 159.76318359 C-15.59782715 159.63508301 -16.25766602 159.50698242 -16.9375 159.375 C-19.25365374 155.90076938 -19.24700826 154.31758406 -19.38671875 150.203125 C-19.42990234 148.98109375 -19.47308594 147.7590625 -19.51757812 146.5 C-19.55302734 145.22125 -19.58847656 143.9425 -19.625 142.625 C-19.67205078 141.36171875 -19.71910156 140.0984375 -19.76757812 138.796875 C-19.95794831 132.85482867 -20.08657479 127.23961334 -18.9375 121.375 C-18.2775 120.715 -17.6175 120.055 -16.9375 119.375 C-16.73244579 116.81475168 -16.62055193 114.31323835 -16.5625 111.75 C-15.95560209 99.05279878 -10.50997793 93.27467174 -1.9375 84.375 C-2.62457031 84.20484375 -3.31164062 84.0346875 -4.01953125 83.859375 C-4.92058594 83.61703125 -5.82164063 83.3746875 -6.75 83.125 C-7.64332031 82.89296875 -8.53664063 82.6609375 -9.45703125 82.421875 C-12.39104979 81.18358056 -13.41002465 80.14857366 -14.9375 77.375 C-15.31210816 74.63786305 -15.07648721 72.15474416 -14.9375 69.375 C-8.90723505 67.36491168 -2.76418393 67.87784974 3.0625 70.375 C4.5475 71.365 4.5475 71.365 6.0625 72.375 C6.36953857 71.69920898 6.67657715 71.02341797 6.99291992 70.32714844 C8.39857653 67.25344598 9.82401146 64.1893194 11.25 61.125 C11.73275391 60.06152344 12.21550781 58.99804688 12.71289062 57.90234375 C13.19306641 56.87753906 13.67324219 55.85273437 14.16796875 54.796875 C14.60262451 53.85424805 15.03728027 52.91162109 15.48510742 51.94042969 C17.7463906 48.26273836 20.41547737 45.93011733 24.51953125 44.546875 C25.29683594 44.40765625 26.07414062 44.2684375 26.875 44.125 C27.66519531 43.97546875 28.45539063 43.8259375 29.26953125 43.671875 C30.15705078 43.52492188 30.15705078 43.52492188 31.0625 43.375 C27.96774739 40.78988445 25.07350226 39.49668751 21.25 38.25 C20.25355469 37.91742188 19.25710937 37.58484375 18.23046875 37.2421875 C1.81911037 32.7498058 -16.34929629 34.4586403 -31.25 42.625 C-32.54357422 43.40617187 -32.54357422 43.40617187 -33.86328125 44.203125 C-35.9375 45.375 -35.9375 45.375 -37.9375 45.375 C-37.9375 46.035 -37.9375 46.695 -37.9375 47.375 C-38.9275 47.375 -39.9175 47.375 -40.9375 47.375 C-41.2675 48.365 -41.5975 49.355 -41.9375 50.375 C-43.390625 51.734375 -43.390625 51.734375 -45.1875 53.125 C-47.84534373 55.29711869 -49.82324646 57.40875746 -51.75 60.25 C-52.471875 61.28125 -53.19375 62.3125 -53.9375 63.375 C-54.5975 63.375 -55.2575 63.375 -55.9375 63.375 C-56.185 64.2 -56.4325 65.025 -56.6875 65.875 C-57.62669385 68.50474278 -58.57013371 70.63774846 -59.875 73.0625 C-67.76276888 88.60258197 -67.35501554 107.43337178 -62.05859375 123.76171875 C-60.03315152 128.48304575 -57.41297938 132.87091277 -54.77734375 137.2734375 C-52.9375 140.375 -52.9375 140.375 -51.82421875 142.7109375 C-50.63863984 144.93585651 -49.22920894 145.45831642 -46.9375 146.375 C-46.9375 147.035 -46.9375 147.695 -46.9375 148.375 C-45.9475 148.705 -44.9575 149.035 -43.9375 149.375 C-42.91730427 150.3543879 -41.91600195 151.35395449 -40.9375 152.375 C-40.2775 152.705 -39.6175 153.035 -38.9375 153.375 C-38.9375 154.035 -38.9375 154.695 -38.9375 155.375 C-38.20144531 155.65601563 -37.46539062 155.93703125 -36.70703125 156.2265625 C-34.2166179 157.25925858 -31.97535708 158.43914366 -29.625 159.75 C-13.97630081 167.56275797 2.90859344 168.54311931 19.56640625 163.58984375 C25.73638509 161.44586228 31.61837716 159.00441523 37.0625 155.375 C40.51577954 154.8259014 44.00855425 154.77057474 47.5 154.625 C48.45455078 154.56957031 49.40910156 154.51414063 50.39257812 154.45703125 C51.31361328 154.41449219 52.23464844 154.37195313 53.18359375 154.328125 C54.44320923 154.26866699 54.44320923 154.26866699 55.72827148 154.20800781 C58.29483845 154.39162164 59.86147742 155.08031813 62.0625 156.375 C61.97683603 159.287575 61.48339045 160.94298024 59.4375 163.04296875 C57.67858625 164.53591772 55.89936981 165.97936262 54.0625 167.375 C54.2790625 167.95507812 54.495625 168.53515625 54.71875 169.1328125 C57.92892599 178.13913959 57.92892599 178.13913959 57.0625 182.375 C55.04213973 184.39536027 53.38276212 185.81710972 51.0625 187.375 C50.258125 187.973125 49.45375 188.57125 48.625 189.1875 C45.03938141 190.84912813 42.97857329 191.05018505 39.0625 190.375 C36.39979381 188.3093855 34.25055811 185.92677225 32.0625 183.375 C31.4025 182.715 30.7425 182.055 30.0625 181.375 C29.33804688 181.5915625 28.61359375 181.808125 27.8671875 182.03125 C18.26460896 184.79679262 18.26460896 184.79679262 13.0625 184.375 C13.02511719 184.95507812 12.98773438 185.53515625 12.94921875 186.1328125 C12.52933809 191.12198266 11.95622211 195.13776406 9.0625 199.375 C3.93238627 202.69448535 -2.58528959 201.85415397 -8.3125 200.6875 C-12.7608552 196.76871089 -13.01550632 191.04445238 -13.9375 185.375 C-15.99831361 184.86809416 -18.06123526 184.36975381 -20.125 183.875 C-21.84783203 183.45734375 -21.84783203 183.45734375 -23.60546875 183.03125 C-27.75956093 182.20785972 -27.75956093 182.20785972 -31.9375 182.375 C-33.74515548 183.8307512 -33.74515548 183.8307512 -35.125 185.8125 C-37.44687914 188.84503344 -38.56151235 190.13420216 -42.4375 190.8125 C-47.64803024 190.16118372 -51.90783178 187.71614577 -55.9375 184.375 C-57.60003263 181.50548747 -58.06438433 180.08254144 -57.4765625 176.8046875 C-57.17492188 175.96164063 -56.87328125 175.11859375 -56.5625 174.25 C-55.54897202 171.35042866 -54.9375 169.47357688 -54.9375 166.375 C-55.9275 165.715 -56.9175 165.055 -57.9375 164.375 C-57.9375 163.715 -57.9375 163.055 -57.9375 162.375 C-59.2575 161.715 -60.5775 161.055 -61.9375 160.375 C-61.9375 159.715 -61.9375 159.055 -61.9375 158.375 C-62.5975 158.375 -63.2575 158.375 -63.9375 158.375 C-64.2675 157.715 -64.5975 157.055 -64.9375 156.375 C-66.7009375 156.5915625 -66.7009375 156.5915625 -68.5 156.8125 C-69.22832031 156.90015625 -69.95664063 156.9878125 -70.70703125 157.078125 C-72.70968359 157.34467768 -74.70030637 157.69818117 -76.6875 158.0625 C-80.20344658 158.40057179 -81.07311727 158.26034566 -83.9375 156.375 C-87.10463949 152.33617075 -89.57925921 148.10106928 -90.625 143.0625 C-89.33064569 138.00275132 -85.05023274 135.26914526 -80.9375 132.375 C-81.05867188 131.82972656 -81.17984375 131.28445312 -81.3046875 130.72265625 C-82.515625 125.2734375 -83.7265625 119.82421875 -84.9375 114.375 C-85.76894531 114.19324219 -86.60039063 114.01148438 -87.45703125 113.82421875 C-88.54371094 113.57285156 -89.63039063 113.32148438 -90.75 113.0625 C-91.82894531 112.81886719 -92.90789062 112.57523437 -94.01953125 112.32421875 C-98.42206952 110.89206775 -98.42206952 110.89206775 -99.9375 108.375 C-100.26263009 105.60992967 -100.40201381 103.1353202 -100.375 100.375 C-100.39498047 99.65054688 -100.41496094 98.92609375 -100.43554688 98.1796875 C-100.43068496 92.90937404 -100.43068496 92.90937404 -98.16015625 90.44921875 C-96.06465015 89.43645218 -94.20297891 88.70519733 -91.9375 88.1875 C-91.2775 88.02894531 -90.6175 87.87039062 -89.9375 87.70703125 C-87.9375 87.375 -87.9375 87.375 -83.9375 87.375 C-83.81375 86.075625 -83.69 84.77625 -83.5625 83.4375 C-83.03886672 78.65650048 -82.07436165 74.04385899 -80.9375 69.375 C-81.50339844 68.89289063 -82.06929687 68.41078125 -82.65234375 67.9140625 C-83.75255859 66.96660156 -83.75255859 66.96660156 -84.875 66 C-85.60589844 65.37351562 -86.33679688 64.74703125 -87.08984375 64.1015625 C-89.48780414 61.86076231 -89.88886365 60.86478862 -90.21484375 57.58203125 C-89.88358443 53.75155375 -88.79605314 52.10696483 -86.5 49.0625 C-85.86191406 48.20011719 -85.22382812 47.33773437 -84.56640625 46.44921875 C-82.9375 44.375 -82.9375 44.375 -81.9375 43.375 C-75.79720117 42.85242138 -70.72738088 44.41785717 -64.9375 46.375 C-64.55078125 45.50101563 -64.55078125 45.50101563 -64.15625 44.609375 C-62.83915983 42.1947097 -61.38661616 40.55759823 -59.4375 38.625 C-58.52484375 37.70460938 -58.52484375 37.70460938 -57.59375 36.765625 C-55.9375 35.375 -55.9375 35.375 -53.9375 35.375 C-54.24945313 34.49457031 -54.56140625 33.61414062 -54.8828125 32.70703125 C-55.46675781 30.96486328 -55.46675781 30.96486328 -56.0625 29.1875 C-56.65417969 27.46466797 -56.65417969 27.46466797 -57.2578125 25.70703125 C-58.02099418 21.96568655 -57.90396464 20.60443347 -55.9375 17.375 C-53.94921875 15.609375 -53.94921875 15.609375 -51.625 14.125 C-50.86574219 13.62484375 -50.10648438 13.1246875 -49.32421875 12.609375 C-46.79780598 11.30275236 -44.76128552 10.67788129 -41.9375 10.375 C-38.28507334 12.06758797 -35.57558477 14.34608785 -32.9375 17.375 C-32.9375 18.035 -32.9375 18.695 -32.9375 19.375 C-26.8136242 18.80797446 -20.52616182 18.09009658 -14.9375 15.375 C-13.3335397 12.64742264 -13.3335397 12.64742264 -12.9375 9.375 C-10.35830057 2.00585876 -7.90951345 0.08299594 0 0 Z M36.375 49.75 C35.58681885 49.78077637 34.7986377 49.81155273 33.98657227 49.84326172 C29.93339182 50.06147159 26.65609755 50.46518829 23.0625 52.375 C21.29133742 54.77111914 21.29133742 54.77111914 19.94921875 57.71484375 C19.42392578 58.77767578 18.89863281 59.84050781 18.35742188 60.93554688 C17.56174805 62.60713867 17.56174805 62.60713867 16.75 64.3125 C16.20021484 65.42302734 15.65042969 66.53355469 15.08398438 67.67773438 C12.10495293 73.27829415 12.10495293 73.27829415 11.0625 79.375 C45.3825 79.375 79.7025 79.375 115.0625 79.375 C115.3925 78.715 115.7225 78.055 116.0625 77.375 C115.0961171 74.97404869 114.07353118 72.69442062 112.9375 70.375 C112.61346191 69.70380127 112.28942383 69.03260254 111.95556641 68.34106445 C111.30011471 66.98589132 110.64176738 65.63211472 109.98046875 64.27978516 C109.17606745 62.61065245 108.41266204 60.92189012 107.65625 59.23046875 C107.05296875 57.90982422 107.05296875 57.90982422 106.4375 56.5625 C106.09460938 55.79292969 105.75171875 55.02335937 105.3984375 54.23046875 C103.5495699 51.66259708 102.10833114 51.20872819 99.0625 50.375 C96.42907022 50.06518473 93.89204722 49.85978593 91.25 49.75 C90.44812256 49.71277832 89.64624512 49.67555664 88.82006836 49.63720703 C71.38904942 48.9418249 53.80337626 48.98511828 36.375 49.75 Z M-9.9375 107.375 C-9.46140992 112.37394581 -8.44018739 115.70144982 -4.9375 119.375 C-1.63642488 120.41852168 1.62022755 120.36245223 5.0625 120.375 C5.76358887 120.38192871 6.46467773 120.38885742 7.18701172 120.39599609 C12.14650549 120.44318942 17.10310797 120.4267802 22.0625 120.375 C21.77589945 115.74687565 21.77589945 115.74687565 19.79370117 111.70385742 C17.70345337 110.09939842 16.27493119 109.79639022 13.67578125 109.42578125 C12.3909082 109.23725586 12.3909082 109.23725586 11.08007812 109.04492188 C9.74106445 108.86799805 9.74106445 108.86799805 8.375 108.6875 C7.50166016 108.55794922 6.62832031 108.42839844 5.72851562 108.29492188 C0.45473932 107.55052776 -4.61353738 107.24484492 -9.9375 107.375 Z M119.3125 108.6875 C117.89517578 108.86442383 117.89517578 108.86442383 116.44921875 109.04492188 C115.08990234 109.23344727 115.08990234 109.23344727 113.703125 109.42578125 C112.88360352 109.53575439 112.06408203 109.64572754 111.21972656 109.7590332 C108.66290805 110.48909806 107.65064164 111.25675575 106.0625 113.375 C105.33208147 116.98523099 105.33208147 116.98523099 105.0625 120.375 C119.09153187 120.52364015 119.09153187 120.52364015 133.0625 119.375 C133.73604499 117.94070999 134.40109701 116.50242943 135.0625 115.0625 C135.43375 114.26199219 135.805 113.46148437 136.1875 112.63671875 C137.24290667 110.31286041 137.24290667 110.31286041 137.0625 107.375 C131.04292453 107.20039905 125.27031288 107.85704203 119.3125 108.6875 Z M33.0625 114.375 C32.4025 115.695 31.7425 117.015 31.0625 118.375 C31.7225 119.035 32.3825 119.695 33.0625 120.375 C33.0625 119.385 33.0625 118.395 33.0625 117.375 C53.5225 117.705 73.9825 118.035 95.0625 118.375 C95.0625 117.055 95.0625 115.735 95.0625 114.375 C74.6025 114.375 54.1425 114.375 33.0625 114.375 Z M33.0625 121.375 C34.0625 124.375 34.0625 124.375 34.0625 124.375 Z M92.0625 121.375 C92.7225 122.035 93.3825 122.695 94.0625 123.375 C94.3925 122.715 94.7225 122.055 95.0625 121.375 C94.0725 121.375 93.0825 121.375 92.0625 121.375 Z M146.0625 125.375 C147.0625 127.375 147.0625 127.375 147.0625 127.375 Z M90.0625 126.375 C89.7325 127.035 89.4025 127.695 89.0625 128.375 C90.0525 128.375 91.0425 128.375 92.0625 128.375 C92.0625 127.715 92.0625 127.055 92.0625 126.375 C91.4025 126.375 90.7425 126.375 90.0625 126.375 Z M11.0625 129.375 C10.38291397 131.77219432 10.38291397 131.77219432 10.0625 134.375 C10.7225 135.035 11.3825 135.695 12.0625 136.375 C14.17070797 136.0564823 14.17070797 136.0564823 16.0625 135.375 C16.44468767 133.71885343 16.77645102 132.05042976 17.0625 130.375 C15.99604885 129.07866379 15.99604885 129.07866379 13.5 129.3125 C12.695625 129.333125 11.89125 129.35375 11.0625 129.375 Z M112.0625 129.375 C110.95413577 131.25816159 110.95413577 131.25816159 110.0625 133.375 C110.3925 134.035 110.7225 134.695 111.0625 135.375 C112.7125 135.375 114.3625 135.375 116.0625 135.375 C116.7439823 133.48320797 116.7439823 133.48320797 117.0625 131.375 C116.4025 130.715 115.7425 130.055 115.0625 129.375 C114.0725 129.375 113.0825 129.375 112.0625 129.375 Z M37.0625 132.375 C37.0625 133.035 37.0625 133.695 37.0625 134.375 C54.2225 134.375 71.3825 134.375 89.0625 134.375 C85.81965221 132.21310147 84.96153779 132.12873245 81.22387695 132.14794922 C80.2430867 132.14810028 79.26229645 132.14825134 78.25178528 132.14840698 C76.66728828 132.16389084 76.66728828 132.16389084 75.05078125 132.1796875 C73.42573921 132.18393234 73.42573921 132.18393234 71.76786804 132.18826294 C68.30346692 132.19946909 64.83932315 132.22457466 61.375 132.25 C59.02799852 132.26002923 56.680993 132.26915518 54.33398438 132.27734375 C48.57673493 132.29940984 42.81963585 132.33289173 37.0625 132.375 Z " fill="#F9AF3D" transform="translate(108.9375,15.625)"/>
<path d="M0 0 C1.22589844 -0.02835938 2.45179687 -0.05671875 3.71484375 -0.0859375 C7.0625 0.375 7.0625 0.375 9.42578125 2.0390625 C11.3525332 4.7889376 11.83956209 6.81443463 12.3125 10.125 C12.46203125 11.10984375 12.6115625 12.0946875 12.765625 13.109375 C12.86359375 13.85703125 12.9615625 14.6046875 13.0625 15.375 C15.78538362 16.18255865 18.50918608 16.94570981 21.25 17.6875 C22.01892578 17.92017578 22.78785156 18.15285156 23.58007812 18.39257812 C25.82602017 18.98057153 27.73894861 19.41072513 30.0625 19.375 C33.09705806 17.24253856 33.09705806 17.24253856 35.0625 14.375 C36.99926954 12.0171936 37.79614955 11.44833187 40.80078125 10.62109375 C44.76368285 10.32209638 46.42142542 11.1875154 49.8125 13.1875 C50.75609375 13.73019531 51.6996875 14.27289063 52.671875 14.83203125 C55.0625 16.375 55.0625 16.375 57.0625 18.375 C57.07421875 20.51171875 57.07421875 20.51171875 56.75 23.0625 C56.64945313 23.95839844 56.54890625 24.85429688 56.4453125 25.77734375 C56.0625 28.375 56.0625 28.375 55.125 32.125 C54.7255819 35.29364497 54.7255819 35.29364497 56.3359375 37.03125 C57.96747281 38.63763795 57.96747281 38.63763795 59.71484375 40.015625 C61.0625 41.375 61.0625 41.375 61.0625 44.375 C36.07989636 45.52261077 36.07989636 45.52261077 25.16015625 39.91015625 C11.16089126 32.97231118 -6.85644372 33.70628103 -21.5078125 38.0859375 C-25.88660274 39.73172427 -29.86314453 41.78749685 -33.86328125 44.203125 C-35.9375 45.375 -35.9375 45.375 -37.9375 45.375 C-37.9375 46.035 -37.9375 46.695 -37.9375 47.375 C-38.9275 47.375 -39.9175 47.375 -40.9375 47.375 C-41.2675 48.365 -41.5975 49.355 -41.9375 50.375 C-43.390625 51.734375 -43.390625 51.734375 -45.1875 53.125 C-47.84534373 55.29711869 -49.82324646 57.40875746 -51.75 60.25 C-52.471875 61.28125 -53.19375 62.3125 -53.9375 63.375 C-54.5975 63.375 -55.2575 63.375 -55.9375 63.375 C-56.185 64.2 -56.4325 65.025 -56.6875 65.875 C-57.62669385 68.50474278 -58.57013371 70.63774846 -59.875 73.0625 C-67.76276888 88.60258197 -67.35501554 107.43337178 -62.05859375 123.76171875 C-60.03315152 128.48304575 -57.41297938 132.87091277 -54.77734375 137.2734375 C-52.9375 140.375 -52.9375 140.375 -51.82421875 142.7109375 C-50.63863984 144.93585651 -49.22920894 145.45831642 -46.9375 146.375 C-46.9375 147.035 -46.9375 147.695 -46.9375 148.375 C-45.9475 148.705 -44.9575 149.035 -43.9375 149.375 C-42.91730427 150.3543879 -41.91600195 151.35395449 -40.9375 152.375 C-40.2775 152.705 -39.6175 153.035 -38.9375 153.375 C-38.9375 154.035 -38.9375 154.695 -38.9375 155.375 C-38.20144531 155.65601563 -37.46539062 155.93703125 -36.70703125 156.2265625 C-34.2166179 157.25925858 -31.97535708 158.43914366 -29.625 159.75 C-13.97630081 167.56275797 2.90859344 168.54311931 19.56640625 163.58984375 C25.73638509 161.44586228 31.61837716 159.00441523 37.0625 155.375 C40.51577954 154.8259014 44.00855425 154.77057474 47.5 154.625 C48.45455078 154.56957031 49.40910156 154.51414063 50.39257812 154.45703125 C51.31361328 154.41449219 52.23464844 154.37195313 53.18359375 154.328125 C54.44320923 154.26866699 54.44320923 154.26866699 55.72827148 154.20800781 C58.29483845 154.39162164 59.86147742 155.08031813 62.0625 156.375 C61.97683603 159.287575 61.48339045 160.94298024 59.4375 163.04296875 C57.67858625 164.53591772 55.89936981 165.97936262 54.0625 167.375 C54.2790625 167.95507812 54.495625 168.53515625 54.71875 169.1328125 C57.92892599 178.13913959 57.92892599 178.13913959 57.0625 182.375 C55.04213973 184.39536027 53.38276212 185.81710972 51.0625 187.375 C50.258125 187.973125 49.45375 188.57125 48.625 189.1875 C45.03938141 190.84912813 42.97857329 191.05018505 39.0625 190.375 C36.39979381 188.3093855 34.25055811 185.92677225 32.0625 183.375 C31.4025 182.715 30.7425 182.055 30.0625 181.375 C29.33804688 181.5915625 28.61359375 181.808125 27.8671875 182.03125 C18.26460896 184.79679262 18.26460896 184.79679262 13.0625 184.375 C13.02511719 184.95507812 12.98773438 185.53515625 12.94921875 186.1328125 C12.52933809 191.12198266 11.95622211 195.13776406 9.0625 199.375 C3.93238627 202.69448535 -2.58528959 201.85415397 -8.3125 200.6875 C-12.7608552 196.76871089 -13.01550632 191.04445238 -13.9375 185.375 C-15.99831361 184.86809416 -18.06123526 184.36975381 -20.125 183.875 C-21.84783203 183.45734375 -21.84783203 183.45734375 -23.60546875 183.03125 C-27.75956093 182.20785972 -27.75956093 182.20785972 -31.9375 182.375 C-33.74515548 183.8307512 -33.74515548 183.8307512 -35.125 185.8125 C-37.44687914 188.84503344 -38.56151235 190.13420216 -42.4375 190.8125 C-47.64803024 190.16118372 -51.90783178 187.71614577 -55.9375 184.375 C-57.60003263 181.50548747 -58.06438433 180.08254144 -57.4765625 176.8046875 C-57.17492188 175.96164063 -56.87328125 175.11859375 -56.5625 174.25 C-55.54897202 171.35042866 -54.9375 169.47357688 -54.9375 166.375 C-55.9275 165.715 -56.9175 165.055 -57.9375 164.375 C-57.9375 163.715 -57.9375 163.055 -57.9375 162.375 C-59.2575 161.715 -60.5775 161.055 -61.9375 160.375 C-61.9375 159.715 -61.9375 159.055 -61.9375 158.375 C-62.5975 158.375 -63.2575 158.375 -63.9375 158.375 C-64.2675 157.715 -64.5975 157.055 -64.9375 156.375 C-66.7009375 156.5915625 -66.7009375 156.5915625 -68.5 156.8125 C-69.22832031 156.90015625 -69.95664063 156.9878125 -70.70703125 157.078125 C-72.70968359 157.34467768 -74.70030637 157.69818117 -76.6875 158.0625 C-80.20344658 158.40057179 -81.07311727 158.26034566 -83.9375 156.375 C-87.10463949 152.33617075 -89.57925921 148.10106928 -90.625 143.0625 C-89.33064569 138.00275132 -85.05023274 135.26914526 -80.9375 132.375 C-81.05867188 131.82972656 -81.17984375 131.28445312 -81.3046875 130.72265625 C-82.515625 125.2734375 -83.7265625 119.82421875 -84.9375 114.375 C-85.76894531 114.19324219 -86.60039063 114.01148438 -87.45703125 113.82421875 C-88.54371094 113.57285156 -89.63039063 113.32148438 -90.75 113.0625 C-91.82894531 112.81886719 -92.90789062 112.57523437 -94.01953125 112.32421875 C-98.42206952 110.89206775 -98.42206952 110.89206775 -99.9375 108.375 C-100.26263009 105.60992967 -100.40201381 103.1353202 -100.375 100.375 C-100.39498047 99.65054688 -100.41496094 98.92609375 -100.43554688 98.1796875 C-100.43068496 92.90937404 -100.43068496 92.90937404 -98.16015625 90.44921875 C-96.06465015 89.43645218 -94.20297891 88.70519733 -91.9375 88.1875 C-91.2775 88.02894531 -90.6175 87.87039062 -89.9375 87.70703125 C-87.9375 87.375 -87.9375 87.375 -83.9375 87.375 C-83.81375 86.075625 -83.69 84.77625 -83.5625 83.4375 C-83.03886672 78.65650048 -82.07436165 74.04385899 -80.9375 69.375 C-81.50339844 68.89289063 -82.06929687 68.41078125 -82.65234375 67.9140625 C-83.75255859 66.96660156 -83.75255859 66.96660156 -84.875 66 C-85.60589844 65.37351562 -86.33679688 64.74703125 -87.08984375 64.1015625 C-89.48780414 61.86076231 -89.88886365 60.86478862 -90.21484375 57.58203125 C-89.88358443 53.75155375 -88.79605314 52.10696483 -86.5 49.0625 C-85.86191406 48.20011719 -85.22382812 47.33773437 -84.56640625 46.44921875 C-82.9375 44.375 -82.9375 44.375 -81.9375 43.375 C-75.79720117 42.85242138 -70.72738088 44.41785717 -64.9375 46.375 C-64.55078125 45.50101563 -64.55078125 45.50101563 -64.15625 44.609375 C-62.83915983 42.1947097 -61.38661616 40.55759823 -59.4375 38.625 C-58.52484375 37.70460938 -58.52484375 37.70460938 -57.59375 36.765625 C-55.9375 35.375 -55.9375 35.375 -53.9375 35.375 C-54.24945313 34.49457031 -54.56140625 33.61414062 -54.8828125 32.70703125 C-55.46675781 30.96486328 -55.46675781 30.96486328 -56.0625 29.1875 C-56.65417969 27.46466797 -56.65417969 27.46466797 -57.2578125 25.70703125 C-58.02099418 21.96568655 -57.90396464 20.60443347 -55.9375 17.375 C-53.94921875 15.609375 -53.94921875 15.609375 -51.625 14.125 C-50.86574219 13.62484375 -50.10648438 13.1246875 -49.32421875 12.609375 C-46.79780598 11.30275236 -44.76128552 10.67788129 -41.9375 10.375 C-38.28507334 12.06758797 -35.57558477 14.34608785 -32.9375 17.375 C-32.9375 18.035 -32.9375 18.695 -32.9375 19.375 C-26.8136242 18.80797446 -20.52616182 18.09009658 -14.9375 15.375 C-13.3335397 12.64742264 -13.3335397 12.64742264 -12.9375 9.375 C-10.35830057 2.00585876 -7.90951345 0.08299594 0 0 Z " fill="#4D4B4C" transform="translate(108.9375,15.625)"/>
<path d="M0 0 C0.99 0.66 1.98 1.32 3 2 C3.33 1.34 3.66 0.68 4 0 C6.0625 -0.625 6.0625 -0.625 8 -1 C7.88648483 0.81325551 7.75887039 2.62563357 7.625 4.4375 C7.55539063 5.44683594 7.48578125 6.45617187 7.4140625 7.49609375 C7.27742188 8.32238281 7.14078125 9.14867188 7 10 C6.01 10.495 6.01 10.495 5 11 C4.5875 10.05125 4.175 9.1025 3.75 8.125 C1.9959869 4.99283376 1.29148243 4.13499394 -2 3 C-2 2.34 -2 1.68 -2 1 C-6.62 1 -11.24 1 -16 1 C-15.67 3.64 -15.34 6.28 -15 9 C-14.24074219 9.04898438 -13.48148438 9.09796875 -12.69921875 9.1484375 C-11.70535156 9.22320312 -10.71148437 9.29796875 -9.6875 9.375 C-8.70136719 9.44460937 -7.71523437 9.51421875 -6.69921875 9.5859375 C-4 10 -4 10 -1 12 C-1.66 13.65 -2.32 15.3 -3 17 C-3.66 17 -4.32 17 -5 17 C-5 17.66 -5 18.32 -5 19 C-5.78375 19.433125 -6.5675 19.86625 -7.375 20.3125 C-10.51679894 22.33222789 -10.77264581 23.56340828 -12 27 C-12.680625 27.825 -13.36125 28.65 -14.0625 29.5 C-16.09184773 32.1185132 -16.62899004 33.75366288 -17 37 C-15.68 37 -14.36 37 -13 37 C-12.72285156 37.71027344 -12.44570312 38.42054687 -12.16015625 39.15234375 C-11.79792969 40.07144531 -11.43570313 40.99054688 -11.0625 41.9375 C-10.70285156 42.85402344 -10.34320313 43.77054688 -9.97265625 44.71484375 C-9.2003782 46.92418533 -9.2003782 46.92418533 -8 48 C-6.00383495 48.22881538 -4.00045807 48.39531688 -1.99609375 48.53515625 C-0.78115234 48.62216797 0.43378906 48.70917969 1.68554688 48.79882812 C2.96494141 48.88583984 4.24433594 48.97285156 5.5625 49.0625 C6.84576172 49.15337891 8.12902344 49.24425781 9.45117188 49.33789062 C12.63385015 49.56268946 15.81676858 49.78319818 19 50 C17.87302957 45.03088634 17.87302957 45.03088634 15 41 C12.29142449 40.34808162 12.29142449 40.34808162 9.1171875 39.9296875 C7.95058594 39.75566406 6.78398438 39.58164063 5.58203125 39.40234375 C4.35871094 39.22832031 3.13539062 39.05429688 1.875 38.875 C0.64394531 38.69324219 -0.58710937 38.51148438 -1.85546875 38.32421875 C-4.90264203 37.87541028 -7.95073704 37.43434453 -11 37 C-11 36.67 -11 36.34 -11 36 C14.15765653 35.31179663 14.15765653 35.31179663 18.80078125 39.703125 C21.24029404 44.09592466 21.01438418 47.1029729 20 52 C-5.05263158 52.63157895 -5.05263158 52.63157895 -12 48 C-12.98515378 45.37643538 -13.42238929 42.75475877 -14 40 C-14.66 40 -15.32 40 -16 40 C-16.92159579 46.21170074 -17.12177385 52.22609106 -17.0625 58.5 C-17.05798828 59.4178125 -17.05347656 60.335625 -17.04882812 61.28125 C-17.03716326 63.52090391 -17.02079614 65.76041545 -17 68 C-16.34 68 -15.68 68 -15 68 C-14.67 69.32 -14.34 70.64 -14 72 C-7.77035385 72.02529951 -1.54072088 72.04284549 4.68896484 72.05493164 C6.80941259 72.05996872 8.92985685 72.06679859 11.05029297 72.07543945 C14.09343322 72.08753234 17.13652766 72.09323447 20.1796875 72.09765625 C21.13181122 72.10281754 22.08393494 72.10797882 23.06491089 72.11329651 C24.38605392 72.11340981 24.38605392 72.11340981 25.73388672 72.11352539 C26.51110077 72.115746 27.28831482 72.11796661 28.08908081 72.12025452 C30.08651572 72.11930686 30.08651572 72.11930686 32 71 C32 69.35 32 67.7 32 66 C32.99 66 33.98 66 35 66 C35 66.66 35 67.32 35 68 C42.65392638 67.88261342 50.30770489 67.75777849 57.96142578 67.62768555 C60.56686629 67.58428863 63.17233611 67.54261714 65.77783203 67.50268555 C69.51604056 67.44509808 73.25410082 67.3813706 76.9921875 67.31640625 C78.74847977 67.29133751 78.74847977 67.29133751 80.54025269 67.26576233 C82.161707 67.2358445 82.161707 67.2358445 83.81591797 67.20532227 C84.77078094 67.18977798 85.72564392 67.1742337 86.70944214 67.15821838 C89.02952228 67.14545368 89.02952228 67.14545368 91 66 C91.58767776 63.83440745 92.07026696 61.63988184 92.5 59.4375 C93.54418576 54.2483738 94.66830895 49.12188867 96 44 C95.34 44 94.68 44 94 44 C94.0928125 45.485 94.0928125 45.485 94.1875 47 C94.20272876 50.76911726 93.16026461 53.61602242 91.734375 57.06640625 C90.74910048 59.6606131 90.34311357 62.25509144 90 65 C87.06138757 65.97953748 85.12113127 66.13747364 82.05712891 66.16113281 C80.55008896 66.17554413 80.55008896 66.17554413 79.01260376 66.19024658 C77.92821014 66.19449646 76.84381653 66.19874634 75.7265625 66.203125 C74.61066742 66.20882507 73.49477234 66.21452515 72.34506226 66.22039795 C69.98298084 66.22984834 67.62088624 66.23638208 65.25878906 66.24023438 C61.64625049 66.24994289 58.03428009 66.28096782 54.421875 66.3125 C52.12760755 66.31902981 49.83333602 66.32428037 47.5390625 66.328125 C45.91854477 66.3466452 45.91854477 66.3466452 44.26528931 66.36553955 C34.68245817 66.33709337 34.68245817 66.33709337 31 63 C29.76660962 60.29995392 28.87205575 57.94194948 28.0625 55.125 C27.82982422 54.41730469 27.59714844 53.70960938 27.35742188 52.98046875 C25.9931576 48.47210003 26.05196794 46.2073124 28 42 C36.42313188 41.97684121 44.84625048 41.95906683 53.26940632 41.94818783 C57.18051083 41.94296676 61.09159357 41.93588315 65.00268555 41.92456055 C68.77630515 41.91370416 72.54990381 41.90771731 76.32353783 41.90512276 C77.76405352 41.90327348 79.20456806 41.89966238 80.64507484 41.89426994 C82.6609142 41.88702314 84.67677458 41.88659163 86.69262695 41.88647461 C88.41471123 41.88314369 88.41471123 41.88314369 90.17158508 41.87974548 C93 42 93 42 96 43 C96 42.01 96 41.02 96 40 C96.66 40 97.32 40 98 40 C98 40.99 98 41.98 98 43 C98.66 42.67 99.32 42.34 100 42 C100 41.34 100 40.68 100 40 C104.69150617 38.29868458 109.28819032 37.27222168 114.1875 36.4375 C115.30535889 36.24462402 115.30535889 36.24462402 116.44580078 36.04785156 C132.20234038 33.40078013 132.20234038 33.40078013 137 35 C135.79174406 29.39808609 134.34841798 26.93428293 130 23 C128.66172696 21.33729713 127.32810215 19.67083819 126 18 C125.2575 17.278125 124.515 16.55625 123.75 15.8125 C122 14 122 14 122 12 C122.88751953 11.81824219 122.88751953 11.81824219 123.79296875 11.6328125 C126.20388144 11.12152596 128.60084016 10.56356104 131 10 C131.969375 9.79375 132.93875 9.5875 133.9375 9.375 C136.47699362 7.68200425 136.5691512 6.76693233 137.3125 3.875 C137.6528125 1.956875 137.6528125 1.956875 138 0 C136.25034642 -0.05429959 134.50020213 -0.09292823 132.75 -0.125 C131.77546875 -0.14820312 130.8009375 -0.17140625 129.796875 -0.1953125 C126.93830278 0.00430847 125.47461853 0.6569378 123 2 C122.01 2 121.02 2 120 2 C120.33 1.01 120.66 0.02 121 -1 C124.10678206 -2.2313897 127.25450403 -2.13400135 130.5625 -2.125 C131.51253906 -2.12757812 132.46257812 -2.13015625 133.44140625 -2.1328125 C136 -2 136 -2 139 -1 C140.03843754 2.20971602 140.0434078 3.85530734 139.0625 7.125 C136.28428478 10.99766364 133.45774297 11.75075348 129 13 C128.01 13.33 127.02 13.66 126 14 C126.59167969 14.6290625 127.18335938 15.258125 127.79296875 15.90625 C128.58316406 16.7621875 129.37335938 17.618125 130.1875 18.5 C130.96480469 19.3353125 131.74210938 20.170625 132.54296875 21.03125 C138.30269594 27.99053881 140.74940463 32.87220307 140.8125 42 C140.83763672 42.87011719 140.86277344 43.74023438 140.88867188 44.63671875 C140.94693062 46.75733699 140.97647765 48.87871207 141 51 C141.66 51 142.32 51 143 51 C145 53 145 53 145.23046875 55.20703125 C145.21628906 56.06683594 145.20210937 56.92664063 145.1875 57.8125 C145.17783203 59.09060547 145.17783203 59.09060547 145.16796875 60.39453125 C145 63 145 63 144.484375 65.3203125 C143.71277867 69.58898251 143.99701495 73.88561807 144.12695312 78.20507812 C144.23513833 84.98256325 144.23513833 84.98256325 142 88 C135.8224385 90.74558289 128.64301113 90.78202536 122 90 C119.15234375 88.765625 119.15234375 88.765625 117 87 C116.29296875 84.80859375 116.29296875 84.80859375 116.1875 82.4375 C116.13980469 81.65246094 116.09210938 80.86742187 116.04296875 80.05859375 C116.01473516 78.70594798 116 77.3529404 116 76 C79.37 76 42.74 76 5 76 C4.67 79.3 4.34 82.6 4 86 C-0.5077574 89.38081805 -0.5077574 89.38081805 -4.6953125 89.3984375 C-6.01595703 89.40423828 -6.01595703 89.40423828 -7.36328125 89.41015625 C-8.73033203 89.39275391 -8.73033203 89.39275391 -10.125 89.375 C-11.04410156 89.38660156 -11.96320313 89.39820313 -12.91015625 89.41015625 C-14.22693359 89.40435547 -14.22693359 89.40435547 -15.5703125 89.3984375 C-16.37227051 89.39505371 -17.17422852 89.39166992 -18.00048828 89.38818359 C-18.99024658 89.19603271 -18.99024658 89.19603271 -20 89 C-22.31615374 85.52576938 -22.30950826 83.94258406 -22.44921875 79.828125 C-22.49240234 78.60609375 -22.53558594 77.3840625 -22.58007812 76.125 C-22.61552734 74.84625 -22.65097656 73.5675 -22.6875 72.25 C-22.73455078 70.98671875 -22.78160156 69.7234375 -22.83007812 68.421875 C-23.02044831 62.47982867 -23.14907479 56.86461334 -22 51 C-21.34 50.34 -20.68 49.68 -20 49 C-19.79494579 46.43975168 -19.68305193 43.93823835 -19.625 41.375 C-19.01810209 28.67779878 -13.57247793 22.89967174 -5 14 C-5.68707031 13.82984375 -6.37414062 13.6596875 -7.08203125 13.484375 C-7.98308594 13.24203125 -8.88414063 12.9996875 -9.8125 12.75 C-11.15248047 12.40195313 -11.15248047 12.40195313 -12.51953125 12.046875 C-15.45354979 10.80858056 -16.47252465 9.77357366 -18 7 C-18.37460816 4.26286305 -18.13898721 1.77974416 -18 -1 C-11.96973505 -3.01008832 -5.82668393 -2.49715026 0 0 Z M116.25 38.3125 C114.83267578 38.48942383 114.83267578 38.48942383 113.38671875 38.66992188 C112.02740234 38.85844727 112.02740234 38.85844727 110.640625 39.05078125 C109.82110352 39.16075439 109.00158203 39.27072754 108.15722656 39.3840332 C105.60040805 40.11409806 104.58814164 40.88175575 103 43 C102.26958147 46.61023099 102.26958147 46.61023099 102 50 C116.02903187 50.14864015 116.02903187 50.14864015 130 49 C130.67354499 47.56570999 131.33859701 46.12742943 132 44.6875 C132.37125 43.88699219 132.7425 43.08648437 133.125 42.26171875 C134.18040667 39.93786041 134.18040667 39.93786041 134 37 C127.98042453 36.82539905 122.20781288 37.48204203 116.25 38.3125 Z M30 44 C29.34 45.32 28.68 46.64 28 48 C28.66 48.66 29.32 49.32 30 50 C30 49.01 30 48.02 30 47 C50.46 47.33 70.92 47.66 92 48 C92 46.68 92 45.36 92 44 C71.54 44 51.08 44 30 44 Z M30 51 C31 54 31 54 31 54 Z M89 51 C89.66 51.66 90.32 52.32 91 53 C91.33 52.34 91.66 51.68 92 51 C91.01 51 90.02 51 89 51 Z M143 55 C144 57 144 57 144 57 Z M87 56 C86.67 56.66 86.34 57.32 86 58 C86.99 58 87.98 58 89 58 C89 57.34 89 56.68 89 56 C88.34 56 87.68 56 87 56 Z M109 59 C107.89163577 60.88316159 107.89163577 60.88316159 107 63 C107.33 63.66 107.66 64.32 108 65 C109.65 65 111.3 65 113 65 C113.6814823 63.10820797 113.6814823 63.10820797 114 61 C113.34 60.34 112.68 59.68 112 59 C111.01 59 110.02 59 109 59 Z M34 62 C34 62.66 34 63.32 34 64 C51.16 64 68.32 64 86 64 C82.75715221 61.83810147 81.89903779 61.75373245 78.16137695 61.77294922 C77.1805867 61.77310028 76.19979645 61.77325134 75.18928528 61.77340698 C73.60478828 61.78889084 73.60478828 61.78889084 71.98828125 61.8046875 C70.36323921 61.80893234 70.36323921 61.80893234 68.70536804 61.81326294 C65.24096692 61.82446909 61.77682315 61.84957466 58.3125 61.875 C55.96549852 61.88502923 53.618493 61.89415518 51.27148438 61.90234375 C45.51423493 61.92440984 39.75713585 61.95789173 34 62 Z " fill="#F9AF3E" transform="translate(112,86)"/>
<path d="M0 0 C8.45767334 -0.02312659 16.91533356 -0.0409167 25.37303066 -0.05181217 C29.29988658 -0.05704031 33.22672094 -0.06413669 37.15356445 -0.07543945 C40.94014257 -0.0862708 44.7266999 -0.09227736 48.51329231 -0.09487724 C49.96104319 -0.09673105 51.40879288 -0.10035081 52.85653496 -0.10573006 C54.87757135 -0.11294367 56.89862848 -0.11340808 58.91967773 -0.11352539 C60.64842384 -0.11685631 60.64842384 -0.11685631 62.41209412 -0.12025452 C65 0 65 0 66 1 C66.37927138 6.40461722 65.8174463 10.12970364 63.734375 15.1015625 C62.73670761 17.68063883 62.34179985 20.26560123 62 23 C59.06138757 23.97953748 57.12113127 24.13747364 54.05712891 24.16113281 C53.05243561 24.17074036 52.04774231 24.1803479 51.01260376 24.19024658 C49.92821014 24.19449646 48.84381653 24.19874634 47.7265625 24.203125 C46.05271988 24.21167511 46.05271988 24.21167511 44.34506226 24.22039795 C41.98298084 24.22984834 39.62088624 24.23638208 37.25878906 24.24023438 C33.64625049 24.24994289 30.03428009 24.28096782 26.421875 24.3125 C24.12760755 24.31902981 21.83333602 24.32428037 19.5390625 24.328125 C17.91854477 24.3466452 17.91854477 24.3466452 16.26528931 24.36553955 C6.68245817 24.33709337 6.68245817 24.33709337 3 21 C1.76660962 18.29995392 0.87205575 15.94194948 0.0625 13.125 C-0.17017578 12.41730469 -0.40285156 11.70960938 -0.64257812 10.98046875 C-2.0068424 6.47210003 -1.94803206 4.2073124 0 0 Z M2 2 C1.34 3.32 0.68 4.64 0 6 C0.66 6.66 1.32 7.32 2 8 C2 7.01 2 6.02 2 5 C22.46 5.33 42.92 5.66 64 6 C64 4.68 64 3.36 64 2 C43.54 2 23.08 2 2 2 Z M2 9 C3 12 3 12 3 12 Z M61 9 C61.66 9.66 62.32 10.32 63 11 C63.33 10.34 63.66 9.68 64 9 C63.01 9 62.02 9 61 9 Z M59 14 C58.67 14.66 58.34 15.32 58 16 C58.99 16 59.98 16 61 16 C61 15.34 61 14.68 61 14 C60.34 14 59.68 14 59 14 Z M6 20 C6 20.66 6 21.32 6 22 C23.16 22 40.32 22 58 22 C54.75715221 19.83810147 53.89903779 19.75373245 50.16137695 19.77294922 C49.1805867 19.77310028 48.19979645 19.77325134 47.18928528 19.77340698 C45.60478828 19.78889084 45.60478828 19.78889084 43.98828125 19.8046875 C42.36323921 19.80893234 42.36323921 19.80893234 40.70536804 19.81326294 C37.24096692 19.82446909 33.77682315 19.84957466 30.3125 19.875 C27.96549852 19.88502923 25.618493 19.89415518 23.27148438 19.90234375 C17.51423493 19.92440984 11.75713585 19.95789173 6 20 Z " fill="#D09A5A" transform="translate(140,128)"/>
<path d="M0 0 C0.495 0.99 0.495 0.99 1 2 C1.76965088 1.98952637 2.53930176 1.97905273 3.33227539 1.96826172 C40.88951899 1.52459484 40.88951899 1.52459484 46.62109375 6.0859375 C49.41586462 9.50941709 51.25442968 12.9560687 53.125 16.9375 C53.45886719 17.62779297 53.79273438 18.31808594 54.13671875 19.02929688 C54.78940366 20.37945879 55.43831156 21.73145457 56.08300781 23.08544922 C57.35476703 25.74070368 58.67517043 28.37091275 60 31 C60.66 31 61.32 31 62 31 C61.7341879 34.18974515 61.2439618 35.7249779 59.09858704 38.14349365 C54.61466404 40.83001864 50.74475034 40.52925462 45.61010742 40.45410156 C44.56574524 40.45468567 43.52138306 40.45526978 42.44537354 40.45587158 C38.99839882 40.4530881 35.55229214 40.42198234 32.10546875 40.390625 C29.71365328 40.38316358 27.3218317 40.37747018 24.93000793 40.37347412 C18.63834725 40.35821015 12.3470566 40.31892112 6.05554199 40.2746582 C-0.36591588 40.23372235 -6.7874336 40.21546666 -13.20898438 40.1953125 C-25.80615206 40.15242813 -38.40304524 40.08416705 -51 40 C-51 36.37 -51 32.74 -51 29 C-51.66 29 -52.32 29 -53 29 C-51.4834474 24.06346652 -49.5015411 19.50698723 -47.25 14.875 C-46.92773438 14.17246094 -46.60546875 13.46992187 -46.2734375 12.74609375 C-43.97383275 8.03101269 -41.9462034 5.22911857 -37 3 C-28.66875881 1.47758357 -20.16258227 2.00544884 -11.75 2.4375 C-10.61175781 2.48970703 -9.47351563 2.54191406 -8.30078125 2.59570312 C-5.53345234 2.72360488 -2.7666589 2.85845747 0 3 C0 2.01 0 1.02 0 0 Z M-24.6875 8.375 C-25.47568115 8.40577637 -26.2638623 8.43655273 -27.07592773 8.46826172 C-31.12910818 8.68647159 -34.40640245 9.09018829 -38 11 C-39.77116258 13.39611914 -39.77116258 13.39611914 -41.11328125 16.33984375 C-41.63857422 17.40267578 -42.16386719 18.46550781 -42.70507812 19.56054688 C-43.50075195 21.23213867 -43.50075195 21.23213867 -44.3125 22.9375 C-44.86228516 24.04802734 -45.41207031 25.15855469 -45.97851562 26.30273438 C-48.95754707 31.90329415 -48.95754707 31.90329415 -50 38 C-15.68 38 18.64 38 54 38 C54.33 37.34 54.66 36.68 55 36 C54.0336171 33.59904869 53.01103118 31.31942062 51.875 29 C51.55096191 28.32880127 51.22692383 27.65760254 50.89306641 26.96606445 C50.23761471 25.61089132 49.57926738 24.25711472 48.91796875 22.90478516 C48.11356745 21.23565245 47.35016204 19.54689012 46.59375 17.85546875 C45.99046875 16.53482422 45.99046875 16.53482422 45.375 15.1875 C45.03210938 14.41792969 44.68921875 13.64835937 44.3359375 12.85546875 C42.4870699 10.28759708 41.04583114 9.83372819 38 9 C35.36657022 8.69018473 32.82954722 8.48478593 30.1875 8.375 C29.38562256 8.33777832 28.58374512 8.30055664 27.75756836 8.26220703 C10.32654942 7.5668249 -7.25912374 7.61011828 -24.6875 8.375 Z " fill="#DFAF65" transform="translate(170,57)"/>
<path d="M0 0 C0.99 0.66 1.98 1.32 3 2 C3.33 1.34 3.66 0.68 4 0 C6.0625 -0.625 6.0625 -0.625 8 -1 C7.88648483 0.81325551 7.75887039 2.62563357 7.625 4.4375 C7.55539063 5.44683594 7.48578125 6.45617187 7.4140625 7.49609375 C7.27742188 8.32238281 7.14078125 9.14867188 7 10 C6.01 10.495 6.01 10.495 5 11 C4.5875 10.05125 4.175 9.1025 3.75 8.125 C1.9959869 4.99283376 1.29148243 4.13499394 -2 3 C-2 2.34 -2 1.68 -2 1 C-6.62 1 -11.24 1 -16 1 C-15.67 3.64 -15.34 6.28 -15 9 C-14.24074219 9.04898438 -13.48148438 9.09796875 -12.69921875 9.1484375 C-11.70535156 9.22320312 -10.71148437 9.29796875 -9.6875 9.375 C-8.70136719 9.44460937 -7.71523437 9.51421875 -6.69921875 9.5859375 C-4 10 -4 10 -1 12 C-1.66 13.65 -2.32 15.3 -3 17 C-3.66 17 -4.32 17 -5 17 C-5 17.66 -5 18.32 -5 19 C-5.78375 19.433125 -6.5675 19.86625 -7.375 20.3125 C-10.51679894 22.33222789 -10.77264581 23.56340828 -12 27 C-12.680625 27.825 -13.36125 28.65 -14.0625 29.5 C-16.09184773 32.1185132 -16.62899004 33.75366288 -17 37 C-15.68 37 -14.36 37 -13 37 C-12.72285156 37.71027344 -12.44570312 38.42054687 -12.16015625 39.15234375 C-11.79792969 40.07144531 -11.43570313 40.99054688 -11.0625 41.9375 C-10.70285156 42.85402344 -10.34320313 43.77054688 -9.97265625 44.71484375 C-9.2003782 46.92418533 -9.2003782 46.92418533 -8 48 C-6.00383495 48.22881538 -4.00045807 48.39531688 -1.99609375 48.53515625 C-0.78115234 48.62216797 0.43378906 48.70917969 1.68554688 48.79882812 C2.96494141 48.88583984 4.24433594 48.97285156 5.5625 49.0625 C6.84576172 49.15337891 8.12902344 49.24425781 9.45117188 49.33789062 C12.63385015 49.56268946 15.81676858 49.78319818 19 50 C17.87302957 45.03088634 17.87302957 45.03088634 15 41 C12.29142449 40.34808162 12.29142449 40.34808162 9.1171875 39.9296875 C7.95058594 39.75566406 6.78398438 39.58164063 5.58203125 39.40234375 C4.35871094 39.22832031 3.13539062 39.05429688 1.875 38.875 C0.64394531 38.69324219 -0.58710937 38.51148438 -1.85546875 38.32421875 C-4.90264203 37.87541028 -7.95073704 37.43434453 -11 37 C-11 36.67 -11 36.34 -11 36 C14.15765653 35.31179663 14.15765653 35.31179663 18.80078125 39.703125 C21.24029404 44.09592466 21.01438418 47.1029729 20 52 C-5.05263158 52.63157895 -5.05263158 52.63157895 -12 48 C-12.98515378 45.37643538 -13.42238929 42.75475877 -14 40 C-14.66 40 -15.32 40 -16 40 C-16.92159579 46.21170074 -17.12177385 52.22609106 -17.0625 58.5 C-17.05798828 59.4178125 -17.05347656 60.335625 -17.04882812 61.28125 C-17.03716326 63.52090391 -17.02079614 65.76041545 -17 68 C-16.34 68 -15.68 68 -15 68 C-14.67 69.32 -14.34 70.64 -14 72 C-13.4095414 72.00423194 -12.81908279 72.00846388 -12.21073151 72.01282406 C2.17924475 72.11628348 16.56917486 72.22494357 30.9590683 72.33933926 C37.91800821 72.39453646 44.87695324 72.44799566 51.8359375 72.49731445 C58.55328622 72.5449257 65.27058029 72.59744499 71.98786926 72.65294075 C74.54904443 72.67330126 77.11023315 72.69202453 79.6714325 72.70907402 C83.26212455 72.73325792 86.85272403 72.76329296 90.44335938 72.79467773 C92.02724457 72.80331093 92.02724457 72.80331093 93.64312744 72.81211853 C99.18248823 72.86705434 104.51909395 73.18537072 110 74 C110 74.33 110 74.66 110 75 C75.35 75.33 40.7 75.66 5 76 C4.67 79.3 4.34 82.6 4 86 C-0.5077574 89.38081805 -0.5077574 89.38081805 -4.6953125 89.3984375 C-6.01595703 89.40423828 -6.01595703 89.40423828 -7.36328125 89.41015625 C-8.73033203 89.39275391 -8.73033203 89.39275391 -10.125 89.375 C-11.04410156 89.38660156 -11.96320313 89.39820313 -12.91015625 89.41015625 C-14.22693359 89.40435547 -14.22693359 89.40435547 -15.5703125 89.3984375 C-16.37227051 89.39505371 -17.17422852 89.39166992 -18.00048828 89.38818359 C-18.99024658 89.19603271 -18.99024658 89.19603271 -20 89 C-22.31615374 85.52576938 -22.30950826 83.94258406 -22.44921875 79.828125 C-22.49240234 78.60609375 -22.53558594 77.3840625 -22.58007812 76.125 C-22.61552734 74.84625 -22.65097656 73.5675 -22.6875 72.25 C-22.73455078 70.98671875 -22.78160156 69.7234375 -22.83007812 68.421875 C-23.02044831 62.47982867 -23.14907479 56.86461334 -22 51 C-21.34 50.34 -20.68 49.68 -20 49 C-19.79494579 46.43975168 -19.68305193 43.93823835 -19.625 41.375 C-19.01810209 28.67779878 -13.57247793 22.89967174 -5 14 C-5.68707031 13.82984375 -6.37414062 13.6596875 -7.08203125 13.484375 C-7.98308594 13.24203125 -8.88414063 12.9996875 -9.8125 12.75 C-11.15248047 12.40195313 -11.15248047 12.40195313 -12.51953125 12.046875 C-15.45354979 10.80858056 -16.47252465 9.77357366 -18 7 C-18.37460816 4.26286305 -18.13898721 1.77974416 -18 -1 C-11.96973505 -3.01008832 -5.82668393 -2.49715026 0 0 Z " fill="#D7A869" transform="translate(112,86)"/>
<path d="M0 0 C0.95003906 -0.00257812 1.90007812 -0.00515625 2.87890625 -0.0078125 C5.4375 0.125 5.4375 0.125 8.4375 1.125 C9.47593754 4.33471602 9.4809078 5.98030734 8.5 9.25 C5.72178478 13.12266364 2.89524297 13.87575348 -1.5625 15.125 C-2.5525 15.455 -3.5425 15.785 -4.5625 16.125 C-3.97082031 16.7540625 -3.37914062 17.383125 -2.76953125 18.03125 C-1.97933594 18.8871875 -1.18914062 19.743125 -0.375 20.625 C0.79095703 21.87796875 0.79095703 21.87796875 1.98046875 23.15625 C7.74019594 30.11553881 10.18690463 34.99720307 10.25 44.125 C10.27513672 44.99511719 10.30027344 45.86523438 10.32617188 46.76171875 C10.38443062 48.88233699 10.41397765 51.00371207 10.4375 53.125 C11.0975 53.125 11.7575 53.125 12.4375 53.125 C14.4375 55.125 14.4375 55.125 14.66796875 57.33203125 C14.65378906 58.19183594 14.63960938 59.05164063 14.625 59.9375 C14.61855469 60.78957031 14.61210937 61.64164063 14.60546875 62.51953125 C14.4375 65.125 14.4375 65.125 13.921875 67.4453125 C13.15027867 71.71398251 13.43451495 76.01061807 13.56445312 80.33007812 C13.67263833 87.10756325 13.67263833 87.10756325 11.4375 90.125 C5.2599385 92.87058289 -1.91948887 92.90702536 -8.5625 92.125 C-11.41015625 90.890625 -11.41015625 90.890625 -13.5625 89.125 C-14.26953125 86.93359375 -14.26953125 86.93359375 -14.375 84.5625 C-14.42269531 83.77746094 -14.47039062 82.99242187 -14.51953125 82.18359375 C-14.54776484 80.83094798 -14.5625 79.4779404 -14.5625 78.125 C-16.2125 77.795 -17.8625 77.465 -19.5625 77.125 C-19.0675 76.135 -19.0675 76.135 -18.5625 75.125 C-17.97758789 75.12089111 -17.39267578 75.11678223 -16.79003906 75.11254883 C-14.12984434 75.07957339 -11.47192845 75.00893093 -8.8125 74.9375 C-7.89210937 74.93169922 -6.97171875 74.92589844 -6.0234375 74.91992188 C-0.53571456 74.7900968 -0.53571456 74.7900968 4 71.9453125 C8.54665242 63.02497814 7.70073368 51.87927043 7.4375 42.125 C6.7775 42.125 6.1175 42.125 5.4375 42.125 C5.19966797 43.04732422 5.19966797 43.04732422 4.95703125 43.98828125 C4.72371094 44.79652344 4.49039063 45.60476562 4.25 46.4375 C3.91935547 47.63826172 3.91935547 47.63826172 3.58203125 48.86328125 C2.0419579 51.9066344 0.48981232 52.6388949 -2.5625 54.125 C-5.60864258 54.46557617 -5.60864258 54.46557617 -8.95703125 54.41796875 C-10.15908203 54.40830078 -11.36113281 54.39863281 -12.59960938 54.38867188 C-13.84548828 54.36353516 -15.09136719 54.33839844 -16.375 54.3125 C-18.27282227 54.29219727 -18.27282227 54.29219727 -20.20898438 54.27148438 C-23.32725643 54.23618318 -26.44466042 54.18686819 -29.5625 54.125 C-30.6170001 48.39688138 -30.34099275 46.18582608 -27.5625 41.125 C-18.4507517 38.08775057 -2.77810059 34.05313314 6.4375 37.125 C5.22924406 31.52308609 3.78591798 29.05928293 -0.5625 25.125 C-1.90077304 23.46229713 -3.23439785 21.79583819 -4.5625 20.125 C-5.67625 19.0421875 -5.67625 19.0421875 -6.8125 17.9375 C-8.5625 16.125 -8.5625 16.125 -8.5625 14.125 C-7.97082031 14.00382812 -7.37914062 13.88265625 -6.76953125 13.7578125 C-4.35861856 13.24652596 -1.96165984 12.68856104 0.4375 12.125 C1.406875 11.91875 2.37625 11.7125 3.375 11.5 C5.91449362 9.80700425 6.0066512 8.89193233 6.75 6 C6.976875 4.72125 7.20375 3.4425 7.4375 2.125 C5.68784642 2.07070041 3.93770213 2.03207177 2.1875 2 C1.21296875 1.97679688 0.2384375 1.95359375 -0.765625 1.9296875 C-3.62419722 2.12930847 -5.08788147 2.7819378 -7.5625 4.125 C-8.5525 4.125 -9.5425 4.125 -10.5625 4.125 C-10.2325 3.135 -9.9025 2.145 -9.5625 1.125 C-6.45571794 -0.1063897 -3.30799597 -0.00900135 0 0 Z M-14.3125 40.4375 C-15.72982422 40.61442383 -15.72982422 40.61442383 -17.17578125 40.79492188 C-18.53509766 40.98344727 -18.53509766 40.98344727 -19.921875 41.17578125 C-20.74139648 41.28575439 -21.56091797 41.39572754 -22.40527344 41.5090332 C-24.96209195 42.23909806 -25.97435836 43.00675575 -27.5625 45.125 C-28.29291853 48.73523099 -28.29291853 48.73523099 -28.5625 52.125 C-14.53346813 52.27364015 -14.53346813 52.27364015 -0.5625 51.125 C0.11104499 49.69070999 0.77609701 48.25242943 1.4375 46.8125 C1.80875 46.01199219 2.18 45.21148437 2.5625 44.38671875 C3.61790667 42.06286041 3.61790667 42.06286041 3.4375 39.125 C-2.58207547 38.95039905 -8.35468712 39.60704203 -14.3125 40.4375 Z M12.4375 57.125 C13.4375 59.125 13.4375 59.125 13.4375 59.125 Z " fill="#DAAA68" transform="translate(242.5625,83.875)"/>
<path d="M0 0 C20.13 0 40.26 0 61 0 C61 0.99 61 1.98 61 3 C46.48 3.33 31.96 3.66 17 4 C17 4.66 17 5.32 17 6 C29.54 6 42.08 6 55 6 C55.33 5.34 55.66 4.68 56 4 C56 4.66 56 5.32 56 6 C56.99 6 57.98 6 59 6 C58.67 6.66 58.34 7.32 58 8 C40.18 7.67 22.36 7.34 4 7 C4 7.66 4 8.32 4 9 C5.65 9.33 7.3 9.66 9 10 C7.68 10.33 6.36 10.66 5 11 C9.75037667 12.22031898 14.37166264 12.12723661 19.23828125 12.09765625 C20.11904831 12.0962413 20.99981537 12.09482635 21.90727234 12.09336853 C24.70905003 12.08778937 27.51074662 12.07524071 30.3125 12.0625 C32.21679572 12.05748231 34.12109269 12.05291987 36.02539062 12.04882812 C40.68362481 12.03782677 45.34179867 12.02057649 50 12 C48.68 11.34 47.36 10.68 46 10 C49.3 9.67 52.6 9.34 56 9 C56 9.66 56 10.32 56 11 C56.99 11.33 57.98 11.66 59 12 C58.67 13.65 58.34 15.3 58 17 C57.27947952 16.83923477 56.55895905 16.67846954 55.81660461 16.51283264 C53.13049462 16.02375978 50.66017796 15.84398255 47.93432617 15.79467773 C46.95368698 15.77473251 45.97304779 15.75478729 44.96269226 15.73423767 C43.9166835 15.71752518 42.87067474 15.70081268 41.79296875 15.68359375 C40.71243729 15.66281265 39.63190582 15.64203156 38.51863098 15.62062073 C35.07498389 15.55535964 31.63126205 15.49634925 28.1875 15.4375 C25.84960172 15.39429249 23.51171093 15.35067749 21.17382812 15.30664062 C15.44929722 15.19970228 9.72469235 15.09789273 4 15 C4 15.66 4 16.32 4 17 C1 16 1 16 0.015625 14.328125 C-1.51356853 10.17745685 -2.49285964 7.35417395 -1 3 C-0.67 2.01 -0.34 1.02 0 0 Z M0 4 C1 7 1 7 1 7 Z " fill="#C18F54" transform="translate(142,133)"/>
<path d="M0 0 C0.33 0 0.66 0 1 0 C1.81928124 6.46904468 2.18261736 12.79417993 2.1875 19.3125 C2.19974609 20.19228516 2.21199219 21.07207031 2.22460938 21.97851562 C2.22750977 23.25178711 2.22750977 23.25178711 2.23046875 24.55078125 C2.23457764 25.31044189 2.23868652 26.07010254 2.24291992 26.8527832 C1.96212961 29.33474384 1.35238872 30.90389699 0 33 C-6.1775615 35.74558289 -13.35698887 35.78202536 -20 35 C-22.84375 33.76171875 -22.84375 33.76171875 -25 32 C-25.7421875 29.84375 -25.7421875 29.84375 -25.875 27.5 C-25.93429688 26.7265625 -25.99359375 25.953125 -26.0546875 25.15625 C-26 23 -26 23 -25 20 C-23.75863281 19.99742187 -22.51726562 19.99484375 -21.23828125 19.9921875 C-19.59631844 19.95465692 -17.95439203 19.91550929 -16.3125 19.875 C-15.49587891 19.87757813 -14.67925781 19.88015625 -13.83789062 19.8828125 C-9.30207476 19.73590348 -7.52656877 19.46074767 -4 16.375 C-1.86976603 12.78023017 -1.15095687 10.25397937 -0.6875 6.125 C-0.54699219 4.97257813 -0.40648437 3.82015625 -0.26171875 2.6328125 C-0.17535156 1.76398438 -0.08898437 0.89515625 0 0 Z " fill="#54504B" transform="translate(254,141)"/>
<path d="M0 0 C0.25 5.625 0.25 5.625 -2 9 C-4.2421875 9.94921875 -4.2421875 9.94921875 -6.875 10.6875 C-7.73867187 10.93886719 -8.60234375 11.19023438 -9.4921875 11.44921875 C-12 12 -12 12 -16 12 C-15.01 14.475 -15.01 14.475 -14 17 C-15.43793392 16.68950274 -16.8753318 16.3765224 -18.3125 16.0625 C-19.11300781 15.88847656 -19.91351563 15.71445313 -20.73828125 15.53515625 C-23 15 -23 15 -26 14 C-26.33 14.33 -26.66 14.66 -27 15 C-29.29151417 15.08790975 -31.58572524 15.10694038 -33.87890625 15.09765625 C-34.90889992 15.09553383 -34.90889992 15.09553383 -35.95970154 15.09336853 C-38.16067801 15.08775479 -40.36155409 15.07520007 -42.5625 15.0625 C-44.05143083 15.05748676 -45.54036324 15.05292355 -47.02929688 15.04882812 C-50.68623075 15.03778093 -54.34310558 15.02050713 -58 15 C-58 14.34 -58 13.68 -58 13 C-73.18 13 -88.36 13 -104 13 C-104 12.34 -104 11.68 -104 11 C-103.00441574 10.99413376 -102.00883148 10.98826752 -100.983078 10.98222351 C-91.60966905 10.92505954 -82.23649351 10.85233135 -72.86332226 10.76428509 C-68.04423373 10.7195197 -63.22523095 10.68027732 -58.40600586 10.65356445 C-53.75689066 10.62759283 -49.10810437 10.58723441 -44.45919228 10.53681374 C-42.68379107 10.52010333 -40.90833292 10.50861511 -39.132864 10.50238609 C-36.64966565 10.49279013 -34.1673167 10.46478627 -31.68432617 10.43237305 C-30.57841629 10.43452568 -30.57841629 10.43452568 -29.45016479 10.4367218 C-25.48203216 10.40513895 -25.48203216 10.40513895 -22.14472961 8.47297668 C-21.76696884 7.98689438 -21.38920807 7.50081207 -21 7 C-20.34 7 -19.68 7 -19 7 C-18.979375 6.236875 -18.95875 5.47375 -18.9375 4.6875 C-18 2 -18 2 -15.125 0.125 C-10.16409981 -1.72886458 -5.11742121 -0.76807588 0 0 Z " fill="#F6AF47" transform="translate(250,86)"/>
<path d="M0 0 C0.33 0 0.66 0 1 0 C1.061875 1.27875 1.12375 2.5575 1.1875 3.875 C1.7097393 8.80119762 3.488609 12.52274323 5.84375 16.8359375 C7 19 7 19 8 22 C14.27 22.33 20.54 22.66 27 23 C26.5050331 32.52811279 26.5050331 32.52811279 24.25537109 34.63012695 C21.68949345 36.18859626 20.28011523 36.38591817 17.3046875 36.3984375 C16.42425781 36.40230469 15.54382813 36.40617187 14.63671875 36.41015625 C13.72535156 36.39855469 12.81398438 36.38695312 11.875 36.375 C10.95589844 36.38660156 10.03679687 36.39820313 9.08984375 36.41015625 C8.21199219 36.40628906 7.33414063 36.40242188 6.4296875 36.3984375 C5.62772949 36.39505371 4.82577148 36.39166992 3.99951172 36.38818359 C3.33967285 36.26008301 2.67983398 36.13198242 2 36 C-0.32631387 32.51052919 -0.31037309 30.89357779 -0.44921875 26.7578125 C-0.49240234 25.52675781 -0.53558594 24.29570312 -0.58007812 23.02734375 C-0.61552734 21.73957031 -0.65097656 20.45179688 -0.6875 19.125 C-0.73455078 17.84496094 -0.78160156 16.56492188 -0.83007812 15.24609375 C-1.16192429 4.83374035 -1.16192429 4.83374035 0 0 Z " fill="#4D4C4C" transform="translate(90,139)"/>
<path d="M0 0 C0.83144531 0.14566406 1.66289063 0.29132813 2.51953125 0.44140625 C7.5397817 1.24712546 12.58757691 1.80803329 17.63671875 2.40234375 C21 3 21 3 24 5 C24 5.66 24 6.32 24 7 C23.360625 7.556875 22.72125 8.11375 22.0625 8.6875 C19.66477167 10.93385288 19.66477167 10.93385288 19.5625 14.5625 C19 18 19 18 17.125 19.875 C12.53149383 21.52866222 7.8730229 21.96861177 3 22 C2.34 21.67 1.68 21.34 1 21 C0.65657551 19.66923011 0.32380126 18.33568021 0 17 C-0.66 16.34 -1.32 15.68 -2 15 C-2.484375 12.90625 -2.484375 12.90625 -2.75 10.5 C-2.89695312 9.30890625 -2.89695312 9.30890625 -3.046875 8.09375 C-3 6 -3 6 -1 4 C-0.3574765 1.93125966 -0.3574765 1.93125966 0 0 Z " fill="#F9AF3E" transform="translate(98,136)"/>
<path d="M0 0 C0.99 0.495 0.99 0.495 2 1 C1.79640363 2.87794858 1.560808 4.75243879 1.3125 6.625 C1.18488281 7.66914063 1.05726563 8.71328125 0.92578125 9.7890625 C-0.20978636 13.72761345 -1.59234776 16.67196614 -5 19 C-8.40219543 19.82830927 -11.69836299 19.83989508 -15.1875 19.8125 C-16.99353468 19.83668228 -18.79953232 19.86387698 -20.60546875 19.89453125 C-21.40106201 19.89300049 -22.19665527 19.89146973 -23.01635742 19.88989258 C-25.07594602 19.87257511 -25.07594602 19.87257511 -27 21 C-28.77501224 20.76435087 -30.54967233 20.52588448 -32.32299805 20.27786255 C-38.40229744 19.64685456 -44.54818499 19.75379179 -50.65625 19.68359375 C-52.16939822 19.66298977 -53.68254114 19.64199248 -55.19567871 19.62062073 C-59.15425279 19.5657553 -63.11287571 19.51619126 -67.0715332 19.46777344 C-71.12064903 19.41729688 -75.16969502 19.36174814 -79.21875 19.30664062 C-87.14577407 19.19949448 -95.07285705 19.09795517 -103 19 C-103 18.67 -103 18.34 -103 18 C-84.19 18 -65.38 18 -46 18 C-45.505 16.515 -45.505 16.515 -45 15 C-43.7315625 15.2784375 -43.7315625 15.2784375 -42.4375 15.5625 C-38.7226718 16.03529632 -35.67025727 15.66064631 -32 15 C-31.67 13.68 -31.34 12.36 -31 11 C-31.66 11 -32.32 11 -33 11 C-33.87890625 4.84765625 -33.87890625 4.84765625 -34 3 C-33 2 -33 2 -30.85546875 1.98046875 C-23.69594035 2.53603977 -23.69594035 2.53603977 -20.375 4.75 C-18.69800296 7.49417697 -18.35268621 8.84434526 -19 12 C-21.04424538 13.97610386 -22.1176825 15 -25 15 C-25 15.66 -25 16.32 -25 17 C-22.45749979 16.88525534 -19.91652662 16.7585303 -17.375 16.625 C-16.66214844 16.5940625 -15.94929688 16.563125 -15.21484375 16.53125 C-10.84856451 16.29090435 -7.07573574 15.73607675 -3 14 C-0.38934223 9.89753778 -0.39361844 4.75449644 0 0 Z M-28 5 C-29.10836423 6.88316159 -29.10836423 6.88316159 -30 9 C-29.67 9.66 -29.34 10.32 -29 11 C-27.35 11 -25.7 11 -24 11 C-23.3185177 9.10820797 -23.3185177 9.10820797 -23 7 C-23.66 6.34 -24.32 5.68 -25 5 C-25.99 5 -26.98 5 -28 5 Z " fill="#F1AF4D" transform="translate(249,140)"/>
<path d="M0 0 C0.25 5.625 0.25 5.625 -2 9 C-7.8679511 11.65039427 -13.63769734 12.35346126 -20 12 C-19.125 4.25 -19.125 4.25 -18 2 C-11.86605114 -1.60036129 -6.89387183 -1.03470409 0 0 Z " fill="#F49323" transform="translate(250,86)"/>
<path d="M0 0 C0.33 0 0.66 0 1 0 C1.81928124 6.46904468 2.18261736 12.79417993 2.1875 19.3125 C2.19974609 20.19228516 2.21199219 21.07207031 2.22460938 21.97851562 C2.22750977 23.25178711 2.22750977 23.25178711 2.23046875 24.55078125 C2.23457764 25.31044189 2.23868652 26.07010254 2.24291992 26.8527832 C1.96212961 29.33474384 1.35238872 30.90389699 0 33 C-6.36432006 35.82858669 -13.15725242 35.18521723 -20 35 C-20 34.34 -20 33.68 -20 33 C-13.07 32.01 -13.07 32.01 -6 31 C-6 28.69 -6 26.38 -6 24 C-5.67 23.34 -5.34 22.68 -5 22 C-5.66 22 -6.32 22 -7 22 C-6.57849267 19.15482555 -5.97822454 17.97545941 -4.03125 15.78125 C-1.6268734 12.48910358 -1.23701056 10.20533714 -0.75 6.1875 C-0.60046875 5.02605469 -0.4509375 3.86460937 -0.296875 2.66796875 C-0.19890625 1.78753906 -0.1009375 0.90710938 0 0 Z " fill="#474245" transform="translate(254,141)"/>
<path d="M0 0 C0.33 0 0.66 0 1 0 C1.061875 1.27875 1.12375 2.5575 1.1875 3.875 C1.7097393 8.80119762 3.488609 12.52274323 5.84375 16.8359375 C7 19 7 19 8 22 C13.61 22.33 19.22 22.66 25 23 C25 23.33 25 23.66 25 24 C18.4 24 11.8 24 5 24 C5 25.65 5 27.3 5 29 C4.01 29.33 3.02 29.66 2 30 C2 30.99 2 31.98 2 33 C5.49046605 34.16348868 8.32277017 34.16834776 12 34.1875 C13.85625 34.20876953 13.85625 34.20876953 15.75 34.23046875 C19.14759425 34.25871019 19.14759425 34.25871019 22 32 C22.99 31.67 23.98 31.34 25 31 C25.33 30.01 25.66 29.02 26 28 C26.25 30.3125 26.25 30.3125 26 33 C23.1709928 35.69906698 21.1702046 36.38217305 17.3046875 36.3984375 C16.42425781 36.40230469 15.54382813 36.40617187 14.63671875 36.41015625 C13.72535156 36.39855469 12.81398438 36.38695312 11.875 36.375 C10.95589844 36.38660156 10.03679687 36.39820313 9.08984375 36.41015625 C8.21199219 36.40628906 7.33414063 36.40242188 6.4296875 36.3984375 C5.62772949 36.39505371 4.82577148 36.39166992 3.99951172 36.38818359 C3.33967285 36.26008301 2.67983398 36.13198242 2 36 C-0.32631387 32.51052919 -0.31037309 30.89357779 -0.44921875 26.7578125 C-0.49240234 25.52675781 -0.53558594 24.29570312 -0.58007812 23.02734375 C-0.61552734 21.73957031 -0.65097656 20.45179688 -0.6875 19.125 C-0.73455078 17.84496094 -0.78160156 16.56492188 -0.83007812 15.24609375 C-1.16192429 4.83374035 -1.16192429 4.83374035 0 0 Z " fill="#50443E" transform="translate(90,139)"/>
<path d="M0 0 C2.5625 0.25 2.5625 0.25 5.5625 2.25 C4.8125 9 4.8125 9 2.5625 11.25 C-0.0625 11.375 -0.0625 11.375 -2.4375 11.25 C-2.1075 12.24 -1.7775 13.23 -1.4375 14.25 C0.2125 14.25 1.8625 14.25 3.5625 14.25 C3.5625 13.59 3.5625 12.93 3.5625 12.25 C6.18901431 12.53119857 8.81319335 12.82443838 11.4375 13.125 C12.55705078 13.24294922 12.55705078 13.24294922 13.69921875 13.36328125 C19.3359375 14.0234375 19.3359375 14.0234375 21.5625 16.25 C7.3725 16.25 -6.8175 16.25 -21.4375 16.25 C-18.26965384 14.13810256 -16.20784621 13.88162591 -12.47265625 13.59375 C-10.05475357 13.18535185 -8.464681 12.64504929 -6.4375 11.25 C-5.59760203 9.14164857 -5.59760203 9.14164857 -5.3125 6.75 C-4.3089455 0.44194313 -4.3089455 0.44194313 0 0 Z M-2.4375 2.25 C-3.11708603 4.64719432 -3.11708603 4.64719432 -3.4375 7.25 C-2.7775 7.91 -2.1175 8.57 -1.4375 9.25 C0.67070797 8.9314823 0.67070797 8.9314823 2.5625 8.25 C2.94468767 6.59385343 3.27645102 4.92542976 3.5625 3.25 C2.49604885 1.95366379 2.49604885 1.95366379 0 2.1875 C-0.804375 2.208125 -1.60875 2.22875 -2.4375 2.25 Z " fill="#F1B04D" transform="translate(122.4375,142.75)"/>
<path d="M0 0 C0.91330078 0.05671875 1.82660156 0.1134375 2.76757812 0.171875 C4.99187982 0.3116217 7.21474097 0.46282032 9.4375 0.625 C9.4375 1.285 9.4375 1.945 9.4375 2.625 C5.8075 2.625 2.1775 2.625 -1.5625 2.625 C-1.5625 3.285 -1.5625 3.945 -1.5625 4.625 C-0.2425 4.955 1.0775 5.285 2.4375 5.625 C2.4375 5.955 2.4375 6.285 2.4375 6.625 C0.79201172 6.71587891 0.79201172 6.71587891 -0.88671875 6.80859375 C-2.34115654 6.89304498 -3.79558305 6.97769066 -5.25 7.0625 C-5.97123047 7.10181641 -6.69246094 7.14113281 -7.43554688 7.18164062 C-11.22957282 7.40685678 -14.84901492 7.75339305 -18.5625 8.625 C-18.665625 9.264375 -18.76875 9.90375 -18.875 10.5625 C-19.101875 11.243125 -19.32875 11.92375 -19.5625 12.625 C-20.5525 12.955 -21.5425 13.285 -22.5625 13.625 C-22.2325 10.655 -21.9025 7.685 -21.5625 4.625 C-20.9025 4.625 -20.2425 4.625 -19.5625 4.625 C-19.5625 3.635 -19.5625 2.645 -19.5625 1.625 C-12.77050006 -0.18527872 -6.98622638 -0.51256246 0 0 Z " fill="#DDAC62" transform="translate(150.5625,59.375)"/>
<path d="M0 0 C0.66 0 1.32 0 2 0 C2 0.66 2 1.32 2 2 C2.99 2.495 2.99 2.495 4 3 C3.01 3 2.02 3 1 3 C0.96261719 3.7734375 0.92523438 4.546875 0.88671875 5.34375 C0.47930005 11.79854038 -0.23056534 17.12879851 -3 23 C-5.54938815 24.27469407 -7.33040998 24.12016184 -10.18408203 24.11352539 C-11.26505157 24.11344986 -12.34602112 24.11337433 -13.45974731 24.11329651 C-15.21603958 24.10555458 -15.21603958 24.10555458 -17.0078125 24.09765625 C-18.20356903 24.0962413 -19.39932556 24.09482635 -20.63131714 24.09336853 C-24.46256987 24.08775663 -28.29376484 24.07520208 -32.125 24.0625 C-34.71744707 24.05748653 -37.30989506 24.05292336 -39.90234375 24.04882812 C-46.26824898 24.03778333 -52.63412037 24.02103359 -59 24 C-59 23.34 -59 22.68 -59 22 C-59.99 22 -60.98 22 -62 22 C-62 21.34 -62 20.68 -62 20 C-61.45160461 20.16265854 -60.90320923 20.32531708 -60.3381958 20.49290466 C-57.68856625 21.06754208 -55.30059541 21.1198612 -52.58886719 21.11352539 C-50.96763947 21.11341209 -50.96763947 21.11341209 -49.31365967 21.11329651 C-47.57285126 21.10555458 -47.57285126 21.10555458 -45.796875 21.09765625 C-44.00748505 21.09553383 -44.00748505 21.09553383 -42.1819458 21.09336853 C-38.37127171 21.08777038 -34.56065634 21.07521819 -30.75 21.0625 C-28.16666752 21.05748476 -25.58333411 21.0529219 -23 21.04882812 C-16.66664663 21.03780155 -10.33332751 21.02106524 -4 21 C-4.01281006 20.05310303 -4.02562012 19.10620605 -4.03881836 18.13061523 C-4.00281577 15.22708599 -3.71052128 13.66065343 -2.5625 11.0625 C-1.04331177 7.34335523 -0.4155464 3.98924543 0 0 Z " fill="#EDB14F" transform="translate(206,130)"/>
<path d="M0 0 C0.33 0 0.66 0 1 0 C1.33 2.31 1.66 4.62 2 7 C2.99 7.33 3.98 7.66 5 8 C7 10 7 10 7.1953125 12.3828125 C7.17210937 13.28773438 7.14890625 14.19265625 7.125 15.125 C7.10695313 16.03507812 7.08890625 16.94515625 7.0703125 17.8828125 C7.04710937 18.58148438 7.02390625 19.28015625 7 20 C4.953125 16.28125 4.953125 16.28125 5.375 13.75 C5.58125 13.1725 5.7875 12.595 6 12 C5.34 12 4.68 12 4 12 C4.04125 13.175625 4.0825 14.35125 4.125 15.5625 C4.11752919 19.76109439 3.52077804 23.07799347 2 27 C1.01 27.33 0.02 27.66 -1 28 C-1.66 29.32 -2.32 30.64 -3 32 C-10.92 32 -18.84 32 -27 32 C-26.67 31.34 -26.34 30.68 -26 30 C-25.41508789 29.99589111 -24.83017578 29.99178223 -24.22753906 29.98754883 C-21.56734434 29.95457339 -18.90942845 29.88393093 -16.25 29.8125 C-14.86941406 29.80379883 -14.86941406 29.80379883 -13.4609375 29.79492188 C-7.97745759 29.66354114 -7.97745759 29.66354114 -3.4375 26.83203125 C0.64887103 18.78143614 0.31912394 8.84682486 0 0 Z " fill="#E0AB5B" transform="translate(250,129)"/>
<path d="M0 0 C4.62 0 9.24 0 14 0 C14 0.66 14 1.32 14 2 C15.32 2.33 16.64 2.66 18 3 C18.33 5.64 18.66 8.28 19 11 C14.69680903 10.4262412 10.40800599 9.77168091 6.125 9.0625 C5.17882812 8.90910156 4.23265625 8.75570312 3.2578125 8.59765625 C2.51273437 8.40042969 1.76765625 8.20320313 1 8 C0 6 0 6 0 0 Z " fill="#F19428" transform="translate(96,87)"/>
<path d="M0 0 C0.99 0.66 1.98 1.32 3 2 C3.33 1.34 3.66 0.68 4 0 C6.0625 -0.625 6.0625 -0.625 8 -1 C7.88648483 0.81325551 7.75887039 2.62563357 7.625 4.4375 C7.55539063 5.44683594 7.48578125 6.45617187 7.4140625 7.49609375 C7.27742188 8.32238281 7.14078125 9.14867188 7 10 C6.01 10.495 6.01 10.495 5 11 C4.5875 10.05125 4.175 9.1025 3.75 8.125 C1.9959869 4.99283376 1.29148243 4.13499394 -2 3 C-2 2.34 -2 1.68 -2 1 C-6.62 1 -11.24 1 -16 1 C-15.67 3.64 -15.34 6.28 -15 9 C-14.24074219 9.04898438 -13.48148437 9.09796875 -12.69921875 9.1484375 C-11.70535156 9.22320312 -10.71148437 9.29796875 -9.6875 9.375 C-8.70136719 9.44460937 -7.71523437 9.51421875 -6.69921875 9.5859375 C-4 10 -4 10 -1 12 C-1.66 13.65 -2.32 15.3 -3 17 C-3.66 17 -4.32 17 -5 17 C-5 17.66 -5 18.32 -5 19 C-5.66 19 -6.32 19 -7 19 C-6.125 15.125 -6.125 15.125 -5 14 C-5.68707031 13.82984375 -6.37414062 13.6596875 -7.08203125 13.484375 C-7.98308594 13.24203125 -8.88414063 12.9996875 -9.8125 12.75 C-11.15248047 12.40195313 -11.15248047 12.40195313 -12.51953125 12.046875 C-15.45354979 10.80858056 -16.47252465 9.77357366 -18 7 C-18.37460816 4.26286305 -18.13898721 1.77974416 -18 -1 C-11.96973505 -3.01008832 -5.82668393 -2.49715026 0 0 Z " fill="#D6964F" transform="translate(112,86)"/>
<path d="M0 0 C2.7081604 -0.36076355 2.7081604 -0.36076355 6.19384766 -0.34057617 C7.49504547 -0.34034958 8.79624329 -0.34012299 10.13687134 -0.33988953 C11.56260519 -0.32456837 12.98833556 -0.30892037 14.4140625 -0.29296875 C15.86851566 -0.28737443 17.32297447 -0.28310356 18.7774353 -0.28010559 C22.60806855 -0.26864374 26.43836128 -0.23916547 30.26885986 -0.20599365 C34.17658888 -0.17532138 38.08437284 -0.16160637 41.9921875 -0.14648438 C49.66161368 -0.11429667 57.33075915 -0.06308463 65 0 C65.495 0.99 65.495 0.99 66 2 C44.88 2.33 23.76 2.66 2 3 C1.22227595 5.33317216 0.57584432 7.61435923 0 10 C-1.125 6.6875 -1.125 6.6875 -2 3 C-1.34 2.01 -0.68 1.02 0 0 Z " fill="#D69C4F" transform="translate(140,128)"/>
<path d="M0 0 C0.99 0.33 1.98 0.66 3 1 C3.75330706 3.00441353 4.20173579 5.0012717 4.66796875 7.08984375 C6.51275817 9.73530424 8.62679976 10.00110168 11.68481445 10.6262207 C15.6123435 11.2603077 19.54163349 11.73174209 23.5 12.125 C24.32242188 12.21136719 25.14484375 12.29773438 25.9921875 12.38671875 C27.99426526 12.59623852 29.99706397 12.79885044 32 13 C32 13.33 32 13.66 32 14 C21.96441853 15.67637253 12.5630521 14.39287926 3 11 C2.855625 11.721875 2.71125 12.44375 2.5625 13.1875 C2 16 2 16 1.3125 18.4375 C0.90264094 21.79834432 1.60871097 23.93916414 3 27 C3.99 27.33 4.98 27.66 6 28 C5.34 28 4.68 28 4 28 C4 29.32 4 30.64 4 32 C4.66 32.33 5.32 32.66 6 33 C5.01 33 4.02 33 3 33 C2.67 31.68 2.34 30.36 2 29 C1.34 29 0.68 29 0 29 C-1.6475405 25.70491901 -1.14526809 22.05607727 -1.125 18.4375 C-1.12306641 17.6242627 -1.12113281 16.81102539 -1.11914062 15.97314453 C-1.0802697 10.58196358 -0.79102121 5.3393932 0 0 Z " fill="#ECB050" transform="translate(95,125)"/>
<path d="M0 0 C0.99 0.99 1.98 1.98 3 3 C2.34 4.32 1.68 5.64 1 7 C-34.31 7 -69.62 7 -106 7 C-106 6.67 -106 6.34 -106 6 C-71.35 6 -36.7 6 -1 6 C-0.67 4.02 -0.34 2.04 0 0 Z " fill="#DFA34F" transform="translate(225,90)"/>
<path d="M0 0 C3.2578125 -0.29296875 3.2578125 -0.29296875 7.125 -0.1875 C9.04699219 -0.14689453 9.04699219 -0.14689453 11.0078125 -0.10546875 C11.99523437 -0.07066406 12.98265625 -0.03585938 14 0 C13.02353516 0.93005859 13.02353516 0.93005859 12.02734375 1.87890625 C9.8789756 3.76230147 9.8789756 3.76230147 9.5625 5.9375 C8.68745506 9.14599812 6.38927664 10.79451387 4 13 C1.525 12.01 1.525 12.01 -1 11 C-2.25 3.375 -2.25 3.375 0 0 Z " fill="#4D4C4D" transform="translate(230,162)"/>
<path d="M0 0 C7.1595284 0.55557102 7.1595284 0.55557102 10.48046875 2.76953125 C12.12707495 5.46397775 12.3456707 6.91491887 11.85546875 10.01953125 C9.85546875 12.01953125 9.85546875 12.01953125 7.41796875 12.14453125 C6.57234375 12.10328125 5.72671875 12.06203125 4.85546875 12.01953125 C3.86546875 12.01953125 2.87546875 12.01953125 1.85546875 12.01953125 C-0.26953125 11.01953125 -0.26953125 11.01953125 -2.14453125 9.01953125 C-2.86494148 6.28087251 -3.0059768 3.88298992 -3.14453125 1.01953125 C-2.14453125 0.01953125 -2.14453125 0.01953125 0 0 Z M2.85546875 3.01953125 C1.74710452 4.90269284 1.74710452 4.90269284 0.85546875 7.01953125 C1.18546875 7.67953125 1.51546875 8.33953125 1.85546875 9.01953125 C3.50546875 9.01953125 5.15546875 9.01953125 6.85546875 9.01953125 C7.53695105 7.12773922 7.53695105 7.12773922 7.85546875 5.01953125 C7.19546875 4.35953125 6.53546875 3.69953125 5.85546875 3.01953125 C4.86546875 3.01953125 3.87546875 3.01953125 2.85546875 3.01953125 Z " fill="#F0AF4E" transform="translate(218.14453125,141.98046875)"/>
<path d="M0 0 C1.65 0 3.3 0 5 0 C5.62648437 1.12019531 6.25296875 2.24039063 6.8984375 3.39453125 C7.72389523 4.86722287 8.54941954 6.33987718 9.375 7.8125 C9.7875 8.55048828 10.2 9.28847656 10.625 10.04882812 C11.02460938 10.76103516 11.42421875 11.47324219 11.8359375 12.20703125 C12.20251465 12.8616333 12.5690918 13.51623535 12.94677734 14.19067383 C13.90206799 15.83176306 14.9466896 17.4200344 16 19 C16.33 19.66 16.66 20.32 17 21 C16.67 21.99 16.34 22.98 16 24 C15.01 24.33 14.02 24.66 13 25 C10.66162754 22.13017926 9.35249707 19.42632591 8 16 C7.34 15.34 6.68 14.68 6 14 C6.185625 13.21625 6.37125 12.4325 6.5625 11.625 C7.31529989 8.94034204 7.31529989 8.94034204 5.5625 6.8125 C5.046875 6.214375 4.53125 5.61625 4 5 C4 4.34 4 3.68 4 3 C3.34 2.67 2.68 2.34 2 2 C1.67 2.66 1.34 3.32 1 4 C0.67 2.68 0.34 1.36 0 0 Z " fill="#DCAD5C" transform="translate(215,69)"/>
<path d="M0 0 C2.35373401 3.53060101 2.65778415 6.58595756 3.125 10.6875 C3.21136719 11.38939453 3.29773438 12.09128906 3.38671875 12.81445312 C3.59826875 14.54211145 3.800086 16.2709566 4 18 C4.66 18 5.32 18 6 18 C6.33 19.32 6.66 20.64 7 22 C12.94 22.66 18.88 23.32 25 24 C25 24.66 25 25.32 25 26 C22.56242587 26.02698422 20.12515085 26.04683099 17.6875 26.0625 C16.99720703 26.07087891 16.30691406 26.07925781 15.59570312 26.08789062 C12.4516975 26.10307906 10.00579981 26.00193327 7 25 C5.68359375 23.328125 5.68359375 23.328125 4.4375 21.25 C4.02371094 20.57453125 3.60992187 19.8990625 3.18359375 19.203125 C0.86330478 14.88417127 -0.28395127 11.14550916 -0.6875 6.25 C-0.77386719 5.28578125 -0.86023438 4.3215625 -0.94921875 3.328125 C-0.96597656 2.55984375 -0.98273438 1.7915625 -1 1 C-0.67 0.67 -0.34 0.34 0 0 Z " fill="#A8845A" transform="translate(91,136)"/>
<path d="M0 0 C25.15765653 -0.68820337 25.15765653 -0.68820337 29.80078125 3.703125 C32.4131414 8.4071687 31.93954791 10.36271252 31 16 C26.05 16 21.1 16 16 16 C16 15.67 16 15.34 16 15 C22.435 14.505 22.435 14.505 29 14 C28.67039784 8.98464948 28.67039784 8.98464948 26 5 C23.29142449 4.34808162 23.29142449 4.34808162 20.1171875 3.9296875 C18.95058594 3.75566406 17.78398438 3.58164063 16.58203125 3.40234375 C15.35871094 3.22832031 14.13539062 3.05429688 12.875 2.875 C11.64394531 2.69324219 10.41289063 2.51148437 9.14453125 2.32421875 C6.09735797 1.87541028 3.04926296 1.43434453 0 1 C0 0.67 0 0.34 0 0 Z " fill="#D6A05F" transform="translate(101,122)"/>
<path d="M0 0 C2 1.375 2 1.375 4 3 C4 3.66 4 4.32 4 5 C4.99 5.33 5.98 5.66 7 6 C7.33 8.31 7.66 10.62 8 13 C6.77990234 13.05607422 6.77990234 13.05607422 5.53515625 13.11328125 C-4.15436888 13.66914827 -13.4810887 15.16766719 -23 17 C-23.33 16.34 -23.66 15.68 -24 15 C-22.94872925 14.83395264 -22.94872925 14.83395264 -21.8762207 14.66455078 C-18.68732253 14.15738799 -15.49993307 13.64128726 -12.3125 13.125 C-11.20970703 12.95097656 -10.10691406 12.77695313 -8.97070312 12.59765625 C-7.90400391 12.42363281 -6.83730469 12.24960938 -5.73828125 12.0703125 C-4.75899658 11.91320801 -3.77971191 11.75610352 -2.77075195 11.59423828 C-0.0085783 11.00183977 2.41466482 10.12657064 5 9 C4.01 8.67 3.02 8.34 2 8 C1.855625 7.236875 1.71125 6.47375 1.5625 5.6875 C1.0367406 2.91827092 1.0367406 2.91827092 0 0 Z " fill="#F3B04E" transform="translate(241,108)"/>
<path d="M0 0 C0.66 0.37125 1.32 0.7425 2 1.125 C2.99 1.455 3.98 1.785 5 2.125 C5 2.785 5 3.445 5 4.125 C5.66 4.125 6.32 4.125 7 4.125 C7.33 5.115 7.66 6.105 8 7.125 C8.99 7.125 9.98 7.125 11 7.125 C13.97043319 11.75887578 14.20875782 14.90152125 13.6171875 20.171875 C13 22.125 13 22.125 10 24.125 C9.91087781 20.29274573 10.12132271 16.85937848 11 13.125 C10.01 12.465 9.02 11.805 8 11.125 C8 10.465 8 9.805 8 9.125 C6.68 8.465 5.36 7.805 4 7.125 C4 6.465 4 5.805 4 5.125 C3.34 5.125 2.68 5.125 2 5.125 C1.67 4.465 1.34 3.805 1 3.125 C-0.89533342 2.65976937 -0.89533342 2.65976937 -3.0625 2.5 C-4.361875 2.37625 -5.66125 2.2525 -7 2.125 C-4.64775558 -0.22724442 -3.22266661 -1.40991664 0 0 Z " fill="#474144" transform="translate(43,168.875)"/>
<path d="M0 0 C1.65 0 3.3 0 5 0 C5 0.99 5 1.98 5 3 C-6.52164009 6.44419134 -6.52164009 6.44419134 -12 6 C-12.03738281 6.58007812 -12.07476562 7.16015625 -12.11328125 7.7578125 C-12.53903667 12.81678864 -13.37138991 16.54279158 -16 21 C-16.66 20.67 -17.32 20.34 -18 20 C-17.690625 18.80375 -17.38125 17.6075 -17.0625 16.375 C-16.39442245 13.75836294 -15.91126151 11.31544594 -15.5625 8.625 C-15 6 -15 6 -12 4 C-9.14415181 3.39700566 -6.28576348 2.98688387 -3.3984375 2.5625 C-2.60695312 2.376875 -1.81546875 2.19125 -1 2 C-0.67 1.34 -0.34 0.68 0 0 Z " fill="#474344" transform="translate(134,194)"/>
<path d="M0 0 C0.33 0 0.66 0 1 0 C1.84843174 6.56699525 2.12561146 12.94550593 2.0625 19.5625 C2.05798828 20.47580078 2.05347656 21.38910156 2.04882812 22.33007812 C2.0371874 24.55345738 2.02083851 26.77669121 2 29 C1.34 29 0.68 29 0 29 C-0.33 25.37 -0.66 21.74 -1 18 C-1.99 18.99 -2.98 19.98 -4 21 C-4.99 20.67 -5.98 20.34 -7 20 C-5.32542373 16.26440678 -5.32542373 16.26440678 -3.5 14.78125 C-1.29245165 12.15978633 -1.24500568 9.67273641 -0.8125 6.3125 C-0.65394531 5.13300781 -0.49539062 3.95351562 -0.33203125 2.73828125 C-0.22246094 1.83464844 -0.11289063 0.93101562 0 0 Z " fill="#423935" transform="translate(254,141)"/>
<path d="M0 0 C4.25177923 0.47241991 6.29969203 2.84964071 9 6 C9 6.99 9 7.98 9 9 C4.87505849 9.05784708 0.75022056 9.09354407 -3.375 9.125 C-4.550625 9.14175781 -5.72625 9.15851562 -6.9375 9.17578125 C-8.61972656 9.18544922 -8.61972656 9.18544922 -10.3359375 9.1953125 C-11.37282715 9.20578613 -12.4097168 9.21625977 -13.47802734 9.22705078 C-16 9 -16 9 -18 7 C-10.08 6.67 -2.16 6.34 6 6 C4.02 4.35 2.04 2.7 0 1 C0 0.67 0 0.34 0 0 Z " fill="#564530" transform="translate(161,51)"/>
<path d="M0 0 C0.33 0 0.66 0 1 0 C1.33 5.94 1.66 11.88 2 18 C5.49046605 19.16348868 8.32277017 19.16834776 12 19.1875 C13.85625 19.20876953 13.85625 19.20876953 15.75 19.23046875 C19.14759425 19.25871019 19.14759425 19.25871019 22 17 C22.99 16.67 23.98 16.34 25 16 C25.33 15.01 25.66 14.02 26 13 C26.25 15.3125 26.25 15.3125 26 18 C23.1709928 20.69906698 21.1702046 21.38217305 17.3046875 21.3984375 C16.42425781 21.40230469 15.54382813 21.40617187 14.63671875 21.41015625 C13.72535156 21.39855469 12.81398438 21.38695312 11.875 21.375 C10.49634766 21.39240234 10.49634766 21.39240234 9.08984375 21.41015625 C8.21199219 21.40628906 7.33414063 21.40242188 6.4296875 21.3984375 C5.62772949 21.39505371 4.82577148 21.39166992 3.99951172 21.38818359 C3.33967285 21.26008301 2.67983398 21.13198242 2 21 C-0.06723714 17.89914429 -0.24497423 17.27068319 -0.1953125 13.76953125 C-0.18886719 12.96708984 -0.18242188 12.16464844 -0.17578125 11.33789062 C-0.15902344 10.50451172 -0.14226562 9.67113281 -0.125 8.8125 C-0.11597656 7.96751953 -0.10695313 7.12253906 -0.09765625 6.25195312 C-0.07410703 4.16784757 -0.03823647 2.08388783 0 0 Z " fill="#353334" transform="translate(90,154)"/>
<path d="M0 0 C1.27230469 0.01804687 2.54460937 0.03609375 3.85546875 0.0546875 C5.31919922 0.08949219 5.31919922 0.08949219 6.8125 0.125 C6.8125 0.785 6.8125 1.445 6.8125 2.125 C2.1925 2.455 -2.4275 2.785 -7.1875 3.125 C-6.8575 4.445 -6.5275 5.765 -6.1875 7.125 C-7.1775 8.61 -7.1775 8.61 -8.1875 10.125 C-8.5175 9.465 -8.8475 8.805 -9.1875 8.125 C-9.8475 9.775 -10.5075 11.425 -11.1875 13.125 C-12.375 11.5625 -12.375 11.5625 -13.1875 9.125 C-10.60901426 1.25383299 -8.05840917 -0.14786072 0 0 Z " fill="#484245" transform="translate(109.1875,15.875)"/>
<path d="M0 0 C0.99386719 0.10183594 1.98773438 0.20367187 3.01171875 0.30859375 C3.77097656 0.39238281 4.53023437 0.47617188 5.3125 0.5625 C5.5625 6.1875 5.5625 6.1875 3.3125 9.5625 C1 10.546875 1 10.546875 -1.6875 11.3125 C-2.574375 11.57546875 -3.46125 11.8384375 -4.375 12.109375 C-6.6875 12.5625 -6.6875 12.5625 -8.6875 11.5625 C-5.0196148 9.60060791 -1.81501449 8.16948743 2.3125 7.5625 C2.3125 6.2425 2.3125 4.9225 2.3125 3.5625 C1.68601563 3.51351562 1.05953125 3.46453125 0.4140625 3.4140625 C-0.40320313 3.33929688 -1.22046875 3.26453125 -2.0625 3.1875 C-3.28066406 3.08308594 -3.28066406 3.08308594 -4.5234375 2.9765625 C-6.6875 2.5625 -6.6875 2.5625 -8.6875 0.5625 C-5.3763987 -0.54120043 -3.44001051 -0.36423641 0 0 Z " fill="#E09236" transform="translate(244.6875,85.4375)"/>
<path d="M0 0 C-1 3 -1 3 -3 5 C-3.99 6.485 -3.99 6.485 -5 8 C-5.66 8 -6.32 8 -7 8 C-7.33 8.66 -7.66 9.32 -8 10 C-9 7 -9 7 -9 2 C-13.95 1.67 -18.9 1.34 -24 1 C-24 0.67 -24 0.34 -24 0 C-20.9378174 -0.19533059 -17.87553679 -0.38153284 -14.8125 -0.5625 C-13.51602539 -0.64661133 -13.51602539 -0.64661133 -12.19335938 -0.73242188 C-7.95250921 -0.9761489 -4.14202181 -1.15770796 0 0 Z " fill="#555150" transform="translate(170,171)"/>
<path d="M0 0 C0.66 0 1.32 0 2 0 C4 2 4 2 4.1953125 4.3828125 C4.17210937 5.28773438 4.14890625 6.19265625 4.125 7.125 C4.10695313 8.03507813 4.08890625 8.94515625 4.0703125 9.8828125 C4.04710937 10.58148438 4.02390625 11.28015625 4 12 C1.953125 8.28125 1.953125 8.28125 2.375 5.75 C2.58125 5.1725 2.7875 4.595 3 4 C2.34 4 1.68 4 1 4 C1.04125 5.175625 1.0825 6.35125 1.125 7.5625 C1.11752919 11.76109439 0.52077804 15.07799347 -1 19 C-1.99 19.33 -2.98 19.66 -4 20 C-4.33 20.99 -4.66 21.98 -5 23 C-5.33 22.01 -5.66 21.02 -6 20 C-5.01 19.67 -4.02 19.34 -3 19 C-1.14337557 14.43579828 -1.56116435 8.87304615 -1.28125 4.01953125 C-1 1 -1 1 0 0 Z " fill="#8D7959" transform="translate(253,137)"/>
<path d="M0 0 C1.8125 1.5 1.8125 1.5 3 3 C1 5 1 5 -1.20703125 5.265625 C-9.84912813 5.21379833 -9.84912813 5.21379833 -14 3 C-10.56695807 -0.43304193 -4.72369044 -0.52485449 0 0 Z " fill="#DAAF6A" transform="translate(145,59)"/>
<path d="M0 0 C2.64 0 5.28 0 8 0 C7.9375 2.125 7.9375 2.125 7 5 C5.82623731 5.98043707 4.61281456 6.91428466 3.375 7.8125 C1.42825301 9.23027893 1.42825301 9.23027893 0 11 C-0.33283096 14.01730358 0.22531796 16.00456278 1 19 C-1.8128104 15.82030129 -3.0876699 13.2958251 -3 9 C-0.125 6.25 -0.125 6.25 3 4 C3.33 3.34 3.66 2.68 4 2 C2.68 1.34 1.36 0.68 0 0 Z " fill="#403D3D" transform="translate(163,172)"/>
<path d="M0 0 C10.51936424 -0.36886082 19.75430906 0.31050613 30 3 C30 3.66 30 4.32 30 5 C30.66 5.33 31.32 5.66 32 6 C15.125 4.125 15.125 4.125 13 2 C10.81707226 1.76518307 8.62796826 1.58636677 6.4375 1.4375 C5.23996094 1.35371094 4.04242188 1.26992188 2.80859375 1.18359375 C1.88175781 1.12300781 0.95492187 1.06242187 0 1 C0 0.67 0 0.34 0 0 Z " fill="#453F3F" transform="translate(103,48)"/>
<path d="M0 0 C0.75410156 0.00451172 1.50820312 0.00902344 2.28515625 0.01367188 C4.14847127 0.02546501 6.01174555 0.04340058 7.875 0.0625 C7.875 0.3925 7.875 0.7225 7.875 1.0625 C6.42867187 1.08376953 6.42867187 1.08376953 4.953125 1.10546875 C3.68984375 1.15316406 2.4265625 1.20085937 1.125 1.25 C-0.12796875 1.28480469 -1.3809375 1.31960937 -2.671875 1.35546875 C-6.8982962 2.22083327 -7.75475733 3.59020525 -10.125 7.0625 C-10.785 7.0625 -11.445 7.0625 -12.125 7.0625 C-12.125 6.4025 -12.125 5.7425 -12.125 5.0625 C-12.723125 5.3925 -13.32125 5.7225 -13.9375 6.0625 C-16.125 7.0625 -16.125 7.0625 -19.125 7.0625 C-19.125 6.4025 -19.125 5.7425 -19.125 5.0625 C-18.49851563 4.78535156 -17.87203125 4.50820312 -17.2265625 4.22265625 C-16.40929687 3.86042969 -15.59203125 3.49820313 -14.75 3.125 C-13.93789062 2.76535156 -13.12578125 2.40570313 -12.2890625 2.03515625 C-8.0107811 0.11224638 -4.67891645 -0.0525267 0 0 Z " fill="#413E3E" transform="translate(153.125,171.9375)"/>
<path d="M0 0 C0 0.99 0 1.98 0 3 C-7.92 3 -15.84 3 -24 3 C-23.67 2.34 -23.34 1.68 -23 1 C-19.72922836 0.83210783 -16.45837336 0.66589762 -13.1875 0.5 C-12.25873047 0.45230469 -11.32996094 0.40460938 -10.37304688 0.35546875 C-9.0340332 0.28779297 -9.0340332 0.28779297 -7.66796875 0.21875 C-6.84578857 0.17685547 -6.0236084 0.13496094 -5.17651367 0.09179688 C-3.45227071 0.01907502 -1.72577585 0 0 0 Z " fill="#CC9D65" transform="translate(247,158)"/>
<path d="M0 0 C2.5625 0.25 2.5625 0.25 5.5625 2.25 C4.6875 9.125 4.6875 9.125 3.5625 10.25 C0.125 10.5 0.125 10.5 -3.4375 10.25 C-5.4375 7.25 -5.4375 7.25 -5.1875 4.6875 C-4.19222355 1.45285154 -3.43336996 0.35214051 0 0 Z M-2.4375 2.25 C-3.11708603 4.64719432 -3.11708603 4.64719432 -3.4375 7.25 C-2.7775 7.91 -2.1175 8.57 -1.4375 9.25 C0.67070797 8.9314823 0.67070797 8.9314823 2.5625 8.25 C2.94468767 6.59385343 3.27645102 4.92542976 3.5625 3.25 C2.49604885 1.95366379 2.49604885 1.95366379 0 2.1875 C-0.804375 2.208125 -1.60875 2.22875 -2.4375 2.25 Z " fill="#D29F51" transform="translate(122.4375,142.75)"/>
<path d="M0 0 C0.95003906 -0.00257812 1.90007812 -0.00515625 2.87890625 -0.0078125 C5.4375 0.125 5.4375 0.125 8.4375 1.125 C9.58697895 4.67793493 9.5243937 5.92476669 8 9.4375 C7.2265625 10.7678125 7.2265625 10.7678125 6.4375 12.125 C5.16398692 9.57797384 5.63558075 8.6967055 6.375 6 C6.56964844 5.27554688 6.76429688 4.55109375 6.96484375 3.8046875 C7.12082031 3.25039062 7.27679688 2.69609375 7.4375 2.125 C5.68784642 2.07070041 3.93770213 2.03207177 2.1875 2 C1.21296875 1.97679688 0.2384375 1.95359375 -0.765625 1.9296875 C-3.62419722 2.12930847 -5.08788147 2.7819378 -7.5625 4.125 C-8.5525 4.125 -9.5425 4.125 -10.5625 4.125 C-10.2325 3.135 -9.9025 2.145 -9.5625 1.125 C-6.45571794 -0.1063897 -3.30799597 -0.00900135 0 0 Z " fill="#E0AB75" transform="translate(242.5625,83.875)"/>
<path d="M0 0 C4.95 0 9.9 0 15 0 C15 0.66 15 1.32 15 2 C7.9452954 5.25601751 7.9452954 5.25601751 4 4.1875 C3.34 3.795625 2.68 3.40375 2 3 C2 2.34 2 1.68 2 1 C1.34 0.67 0.68 0.34 0 0 Z " fill="#F0B14E" transform="translate(214,138)"/>
<path d="M0 0 C0 0.66 0 1.32 0 2 C0.99 2.33 1.98 2.66 3 3 C2.67 4.65 2.34 6.3 2 8 C0.68 7.34 -0.64 6.68 -2 6 C-2 5.34 -2 4.68 -2 4 C-2.5775 3.87625 -3.155 3.7525 -3.75 3.625 C-6.02335767 2.99351176 -7.9253529 2.11141809 -10 1 C-6.61981469 -0.04005702 -3.5219721 -0.08004482 0 0 Z " fill="#C78E4C" transform="translate(198,142)"/>
<path d="M0 0 C2.375 0.3125 2.375 0.3125 5 1 C7 4 7 4 8 6 C7.67 6.99 7.34 7.98 7 9 C6.01 9.33 5.02 9.66 4 10 C1.16625119 6.79663178 0.4794463 4.21912747 0 0 Z " fill="#E9B25D" transform="translate(224,84)"/>
<path d="M0 0 C4.62 0 9.24 0 14 0 C14 0.66 14 1.32 14 2 C10.37 2 6.74 2 3 2 C3 2.66 3 3.32 3 4 C4.32 4.33 5.64 4.66 7 5 C3.52176885 6.15941038 1.54104422 5.70820884 -2 5 C-1.34 3.35 -0.68 1.7 0 0 Z " fill="#CDA359" transform="translate(146,60)"/>
<path d="M0 0 C3.125 0.1875 3.125 0.1875 6.125 2.1875 C5.795 4.1675 5.465 6.1475 5.125 8.1875 C-1.625 8.3125 -1.625 8.3125 -3.875 7.1875 C-3.91754356 5.18795254 -3.91580783 3.18708364 -3.875 1.1875 C-2.875 0.1875 -2.875 0.1875 0 0 Z M-0.875 1.1875 C-1.98336423 3.07066159 -1.98336423 3.07066159 -2.875 5.1875 C-2.545 5.8475 -2.215 6.5075 -1.875 7.1875 C-0.225 7.1875 1.425 7.1875 3.125 7.1875 C3.8064823 5.29570797 3.8064823 5.29570797 4.125 3.1875 C3.465 2.5275 2.805 1.8675 2.125 1.1875 C1.135 1.1875 0.145 1.1875 -0.875 1.1875 Z " fill="#D9A762" transform="translate(221.875,143.8125)"/>
<path d="M0 0 C0 0.66 0 1.32 0 2 C-0.99 2 -1.98 2 -3 2 C-3.2165625 3.11375 -3.2165625 3.11375 -3.4375 4.25 C-3.90187492 6.52027739 -4.41863569 8.75759479 -5 11 C-5.99 11 -6.98 11 -8 11 C-7.125 3.25 -7.125 3.25 -6 1 C-3 0 -3 0 0 0 Z " fill="#EC932E" transform="translate(238,87)"/>
<path d="M0 0 C1.24200301 2.48400602 0.98221651 3.82207636 0.6875 6.5625 C0.56955078 7.77099609 0.56955078 7.77099609 0.44921875 9.00390625 C0.30097656 9.66261719 0.15273437 10.32132813 0 11 C-0.99 11.495 -0.99 11.495 -2 12 C-5 6.375 -5 6.375 -5 3 C-2.5 1.3125 -2.5 1.3125 0 0 Z " fill="#E4A951" transform="translate(119,85)"/>
<path d="M0 0 C0 3.93631364 -1.42857129 5.12605026 -4 8 C-6.70879335 9.35439668 -9.00933268 9.06501451 -12 9 C-12 8.01 -12 7.02 -12 6 C-11.278125 5.87625 -10.55625 5.7525 -9.8125 5.625 C-7.04278106 5.0095069 -4.6029646 4.11555626 -2 3 C-2 2.34 -2 1.68 -2 1 C-1.34 0.67 -0.68 0.34 0 0 Z " fill="#444142" transform="translate(75,197)"/>
<path d="M0 0 C0.94875 0.04125 1.8975 0.0825 2.875 0.125 C2.235625 0.3725 1.59625 0.62 0.9375 0.875 C-1.26399973 1.90111718 -1.26399973 1.90111718 -1.6875 3.875 C-1.831875 4.6175 -1.97625 5.36 -2.125 6.125 C-2.30160156 6.97578125 -2.47820313 7.8265625 -2.66015625 8.703125 C-2.83417969 9.58484375 -3.00820312 10.4665625 -3.1875 11.375 C-3.36410156 12.26703125 -3.54070313 13.1590625 -3.72265625 14.078125 C-3.85542969 14.75359375 -3.98820313 15.4290625 -4.125 16.125 C-4.455 16.125 -4.785 16.125 -5.125 16.125 C-5.17884521 13.83358714 -5.21772087 11.54181812 -5.25 9.25 C-5.27320313 7.97382812 -5.29640625 6.69765625 -5.3203125 5.3828125 C-5.05786642 1.00521185 -4.40827 0.1763308 0 0 Z " fill="#413F40" transform="translate(14.125,105.875)"/>
<path d="M0 0 C3.2578125 -0.29296875 3.2578125 -0.29296875 7.125 -0.1875 C9.04699219 -0.14689453 9.04699219 -0.14689453 11.0078125 -0.10546875 C11.99523437 -0.07066406 12.98265625 -0.03585938 14 0 C14 0.33 14 0.66 14 1 C12.96939453 1.05607422 12.96939453 1.05607422 11.91796875 1.11328125 C11.01691406 1.17902344 10.11585938 1.24476563 9.1875 1.3125 C8.29417969 1.37050781 7.40085938 1.42851562 6.48046875 1.48828125 C3.65891203 2.07036618 2.68486541 2.69439471 1 5 C0.74930087 7.62570704 0.74930087 7.62570704 1 10 C0.34 10 -0.32 10 -1 10 C-2.25 3.375 -2.25 3.375 0 0 Z " fill="#453B37" transform="translate(230,162)"/>
<path d="M0 0 C0.33 0.66 0.66 1.32 1 2 C3.12576782 2.46651207 3.12576782 2.46651207 5.5625 2.625 C6.38878906 2.69976562 7.21507812 2.77453125 8.06640625 2.8515625 C8.70449219 2.90054688 9.34257812 2.94953125 10 3 C10 3.33 10 3.66 10 4 C8.35 4.33 6.7 4.66 5 5 C5 5.66 5 6.32 5 7 C0.38 7 -4.24 7 -9 7 C-9 6.67 -9 6.34 -9 6 C-6.36 5.67 -3.72 5.34 -1 5 C-0.67 3.35 -0.34 1.7 0 0 Z " fill="#D2A156" transform="translate(170,57)"/>
<path d="M0 0 C0.66 0 1.32 0 2 0 C2.375 2.6875 2.375 2.6875 2 6 C-1.67983055 9.85506058 -4.78706865 11.63470846 -10 13 C-5.375 8.125 -5.375 8.125 -2 7 C-0.77030122 3.48809191 -0.77030122 3.48809191 0 0 Z " fill="#413E3E" transform="translate(164,192)"/>
<path d="M0 0 C0.33 0 0.66 0 1 0 C1.62529897 5.0247239 2.13012092 9.92528427 2 15 C1.01 15.33 0.02 15.66 -1 16 C-2.22602512 12.32192463 -1.70295577 10.11756073 -1.0625 6.3125 C-0.86785156 5.13300781 -0.67320312 3.95351562 -0.47265625 2.73828125 C-0.31667969 1.83464844 -0.16070312 0.93101562 0 0 Z " fill="#392B24" transform="translate(254,141)"/>
<path d="M0 0 C0.66 0.66 1.32 1.32 2 2 C1.625 4.125 1.625 4.125 1 6 C1.66 6.33 2.32 6.66 3 7 C3.4140625 9.06640625 3.4140625 9.06640625 3.625 11.5625 C3.69976562 12.38878906 3.77453125 13.21507813 3.8515625 14.06640625 C3.90054688 14.70449219 3.94953125 15.34257813 4 16 C2.10331936 13.15497903 0.76736522 10.42700115 -0.625 7.3125 C-1.07101563 6.31863281 -1.51703125 5.32476562 -1.9765625 4.30078125 C-2.31429687 3.54152344 -2.65203125 2.78226562 -3 2 C-2.01 1.34 -1.02 0.68 0 0 Z " fill="#D9B272" transform="translate(221,77)"/>
<path d="M0 0 C0.66 0 1.32 0 2 0 C2.2475 0.721875 2.495 1.44375 2.75 2.1875 C4.62596139 6.40841313 6.52033196 9.2937948 10.75 11.3125 C11.4925 11.539375 12.235 11.76625 13 12 C13 12.33 13 12.66 13 13 C10.9375 13.4375 10.9375 13.4375 8 13 C4.02063881 10.10972714 1.36623876 7.34287546 0.0625 2.5625 C0.041875 1.716875 0.02125 0.87125 0 0 Z " fill="#403C3D" transform="translate(140,193)"/>
<path d="M0 0 C1.32 0 2.64 0 4 0 C4 0.66 4 1.32 4 2 C0.12315913 3.19287411 -2.91621923 4 -7 4 C-6.67 5.32 -6.34 6.64 -6 8 C-6.66 8 -7.32 8 -8 8 C-8.66 6.35 -9.32 4.7 -10 3 C-9.04287109 2.80083984 -9.04287109 2.80083984 -8.06640625 2.59765625 C-7.24011719 2.42105469 -6.41382813 2.24445313 -5.5625 2.0625 C-4.73878906 1.88847656 -3.91507813 1.71445313 -3.06640625 1.53515625 C-1.02338796 1.19247006 -1.02338796 1.19247006 0 0 Z " fill="#D99E59" transform="translate(244,95)"/>
<path d="M0 0 C4.26825992 1.42275331 5.70299871 4.26343968 8 8 C9.3125 10.9375 9.3125 10.9375 10 13 C6.37114422 11.54845769 4.84567327 9.7599362 2.75 6.5 C1.96882813 5.30890625 1.96882813 5.30890625 1.171875 4.09375 C0 2 0 2 0 0 Z " fill="#444142" transform="translate(50,150)"/>
<path d="M0 0 C4.16138263 -0.08159574 7.9472484 0.01751476 12 1 C11.34 2.65 10.68 4.3 10 6 C9.34 6 8.68 6 8 6 C8 6.66 8 7.32 8 8 C7.34 8 6.68 8 6 8 C6.875 4.125 6.875 4.125 8 3 C5.36 2.34 2.72 1.68 0 1 C0 0.67 0 0.34 0 0 Z " fill="#DA9E5C" transform="translate(99,97)"/>
<path d="M0 0 C4.60428934 1.31551124 8.18320388 3.09196486 12 6 C12 6.66 12 7.32 12 8 C7.37534309 6.56121785 4.02449647 4.68299765 0 2 C0 1.34 0 0.68 0 0 Z " fill="#403E3F" transform="translate(71,172)"/>
<path d="M0 0 C0.66 0 1.32 0 2 0 C2 1.65 2 3.3 2 5 C2.66 5.33 3.32 5.66 4 6 C2.1875 7.5625 2.1875 7.5625 0 9 C-0.99 8.67 -1.98 8.34 -3 8 C-2.34 8 -1.68 8 -1 8 C-1.020625 6.865625 -1.04125 5.73125 -1.0625 4.5625 C-1 1 -1 1 0 0 Z " fill="#464445" transform="translate(26,96)"/>
<path d="M0 0 C3.63 0 7.26 0 11 0 C10.01 1.485 10.01 1.485 9 3 C7.0546875 3.29296875 7.0546875 3.29296875 4.875 3.1875 C3.59625 3.125625 2.3175 3.06375 1 3 C0.67 2.01 0.34 1.02 0 0 Z " fill="#E5B364" transform="translate(160,60)"/>
<path d="M0 0 C0.33 0.99 0.66 1.98 1 3 C0.01 3 -0.98 3 -2 3 C-4.67356157 3.28627045 -7.33365575 3.65031551 -10 4 C-10 3.34 -10 2.68 -10 2 C-3.375 -1.125 -3.375 -1.125 0 0 Z " fill="#464344" transform="translate(68,27)"/>
<path d="M0 0 C0.99 0.33 1.98 0.66 3 1 C3.6875 3.0625 3.6875 3.0625 4 5 C0.42355152 6.2380014 -2.33694766 5.74926071 -6 5 C-6 4.67 -6 4.34 -6 4 C-4.35 3.67 -2.7 3.34 -1 3 C-0.67 2.01 -0.34 1.02 0 0 Z " fill="#494645" transform="translate(249,169)"/>
<path d="M0 0 C2.125 0.375 2.125 0.375 4 1 C3.21625 1.7425 2.4325 2.485 1.625 3.25 C-0.56504531 5.54433318 -1.82731386 7.12158858 -3 10 C-3.66 9.67 -4.32 9.34 -5 9 C-2.25 2.25 -2.25 2.25 0 0 Z " fill="#464143" transform="translate(26,60)"/>
<path d="M0 0 C0.99 0.33 1.98 0.66 3 1 C1.625 2.5 1.625 2.5 0 4 C-0.66 4 -1.32 4 -2 4 C-2 4.66 -2 5.32 -2 6 C-3.32 5.67 -4.64 5.34 -6 5 C-6 4.34 -6 3.68 -6 3 C-4.02 2.67 -2.04 2.34 0 2 C0 1.34 0 0.68 0 0 Z " fill="#3F3A3E" transform="translate(73,57)"/>
<path d="M0 0 C3.93846154 4.30769231 3.93846154 4.30769231 4.25 7.8125 C4.1675 8.534375 4.085 9.25625 4 10 C3.01 9.67 2.02 9.34 1 9 C-0.25 5.5625 -0.25 5.5625 -1 2 C-0.67 1.34 -0.34 0.68 0 0 Z " fill="#D8985A" transform="translate(142,140)"/>
<path d="M0 0 C3.48331435 3.01887244 4.79157144 5.56909529 6 10 C3 9 3 9 1.3125 6.6875 C0 4 0 4 0 0 Z " fill="#3D393B" transform="translate(20,160)"/>
<path d="M0 0 C2 0 2 0 3.6875 1.625 C5.45472318 4.82283241 4.97609173 6.54613697 4 10 C3.34 10.66 2.68 11.32 2 12 C2.04125 10.7625 2.0825 9.525 2.125 8.25 C2.13658291 4.98362038 1.8568702 2.7853053 0 0 Z " fill="#474344" transform="translate(26,81)"/>
<path d="M0 0 C0.66 0 1.32 0 2 0 C2 0.99 2 1.98 2 3 C1.34 3 0.68 3 0 3 C-0.268125 3.969375 -0.53625 4.93875 -0.8125 5.9375 C-1.204375 6.948125 -1.59625 7.95875 -2 9 C-2.99 9.33 -3.98 9.66 -5 10 C-3.66749209 6.4124787 -2.169283 3.1635377 0 0 Z " fill="#403B3C" transform="translate(53,76)"/>
<path d="M0 0 C0.66 0 1.32 0 2 0 C1.67 3.3 1.34 6.6 1 10 C0.34 9.67 -0.32 9.34 -1 9 C-1.75 6.125 -1.75 6.125 -2 3 C-1.34 2.01 -0.68 1.02 0 0 Z " fill="#DCA050" transform="translate(140,128)"/>
<path d="M0 0 C0.66 0 1.32 0 2 0 C2 3.63 2 7.26 2 11 C1.67 11 1.34 11 1 11 C1 9.02 1 7.04 1 5 C0.01 5.33 -0.98 5.66 -2 6 C-1.34 4.02 -0.68 2.04 0 0 Z " fill="#EDB14D" transform="translate(248,126)"/>
<path d="M0 0 C5.75 -0.125 5.75 -0.125 8 1 C7.67 1.99 7.34 2.98 7 4 C3.73045798 3.43628586 2.17424117 2.50037734 0 0 Z " fill="#464445" transform="translate(132,35)"/>
<path d="M0 0 C0.66 0 1.32 0 2 0 C3 3 3 3 1.5625 6.1875 C0.7890625 7.5796875 0.7890625 7.5796875 0 9 C-0.66 8.67 -1.32 8.34 -2 8 C-1.34 5.36 -0.68 2.72 0 0 Z " fill="#3A3738" transform="translate(118,206)"/>
<path d="M0 0 C0 0.66 0 1.32 0 2 C-0.66 2 -1.32 2 -2 2 C-2.4640625 3.175625 -2.4640625 3.175625 -2.9375 4.375 C-4 7 -4 7 -5 9 C-5.66 9 -6.32 9 -7 9 C-4.4 0 -4.4 0 0 0 Z " fill="#DFB479" transform="translate(131,62)"/>
<path d="M0 0 C0.66 0 1.32 0 2 0 C1.45276317 3.37462715 0.9451 5.08235 -1 8 C-1.66 8 -2.32 8 -3 8 C-1.125 1.125 -1.125 1.125 0 0 Z " fill="#E9B25A" transform="translate(128,66)"/>
<path d="M0 0 C0.99 0.33 1.98 0.66 3 1 C3 3.31 3 5.62 3 8 C0.9375 6.25 0.9375 6.25 -1 4 C-0.75 1.75 -0.75 1.75 0 0 Z " fill="#454243" transform="translate(117,19)"/>
<path d="M0 0 C0.33 0 0.66 0 1 0 C1.25 2.3125 1.25 2.3125 1 5 C-0.8125 6.875 -0.8125 6.875 -3 8 C-3.99 7.67 -4.98 7.34 -6 7 C-4.71034824 5.62437146 -3.37310707 4.29233607 -2 3 C-1.34 3 -0.68 3 0 3 C0 2.01 0 1.02 0 0 Z " fill="#3E3A3B" transform="translate(115,167)"/>
<path d="M0 0 C0.625 1.8125 0.625 1.8125 1 4 C0.01 5.485 0.01 5.485 -1 7 C-1.66 7 -2.32 7 -3 7 C-3.33 7.99 -3.66 8.98 -4 10 C-4.33 9.01 -4.66 8.02 -5 7 C-4.01 6.67 -3.02 6.34 -2 6 C-1.32843384 4.06381575 -1.32843384 4.06381575 -1 2 C-0.67 1.34 -0.34 0.68 0 0 Z " fill="#A3815D" transform="translate(252,150)"/>
<path d="M0 0 C6.75 0.75 6.75 0.75 9 3 C6.03 2.67 3.06 2.34 0 2 C0 1.34 0 0.68 0 0 Z " fill="#433E40" transform="translate(79,195)"/>
<path d="M0 0 C0.33 0.99 0.66 1.98 1 3 C-1.3125 5.5 -1.3125 5.5 -4 8 C-4.99 8 -5.98 8 -7 8 C-4.69 5.36 -2.38 2.72 0 0 Z " fill="#D7B786" transform="translate(104,103)"/>
<path d="M0 0 C2.32472205 2.85306797 3.7508258 5.54074837 5 9 C3.0625 8.4375 3.0625 8.4375 1 7 C0.25 3.375 0.25 3.375 0 0 Z " fill="#D0A165" transform="translate(99,127)"/>
<path d="M0 0 C1.2065625 0.0309375 1.2065625 0.0309375 2.4375 0.0625 C0.07457344 2.58838702 -1.22712511 3.95070837 -4.5625 5.0625 C-3.43829114 0.08386076 -3.43829114 0.08386076 0 0 Z " fill="#443F43" transform="translate(149.5625,26.9375)"/>
</svg>
