<svg xmlns="http://www.w3.org/2000/svg" width="261" height="223" version="1.1"><path fill="#F9AF3D" d="m108.938 15.625 3.714-.086C116 16 116 16 118.363 17.664c1.927 2.75 2.414 4.775 2.887 8.086l.453 2.984L122 31c2.723.808 5.447 1.57 8.188 2.313l2.33.705c2.246.588 4.158 1.018 6.482.982 3.035-2.132 3.035-2.132 5-5 1.937-2.358 2.734-2.927 5.738-3.754 3.963-.299 5.62.567 9.012 2.567l2.86 1.644C164 32 164 32 166 34c.012 2.137.012 2.137-.313 4.688l-.3 2.714C165 44 165 44 164 47.75c-.359 3.22-.359 3.22 1.496 4.941 1.912 1.639 1.912 1.639 3.938 3.047L171 57v2c.77-.01 1.54-.02 2.332-.032 37.558-.443 37.558-.443 43.29 4.118 2.794 3.423 4.632 6.87 6.503 10.852l1.012 2.091c.652 1.35 1.301 2.702 1.946 4.056A439.321 439.321 0 0 0 230 88l1.25-1.438c3.29-2.938 7.057-2.699 11.313-2.687l2.878-.008C248 84 248 84 251 85c1.038 3.21 1.043 4.855.063 8.125-2.779 3.873-5.605 4.626-10.063 5.875l-3 1 1.793 1.906 2.394 2.594 2.356 2.531c5.76 6.96 8.206 11.841 8.27 20.969l.076 2.637c.058 2.12.087 4.242.111 6.363h2c2 2 2 2 2.23 4.207l-.043 2.606-.019 2.582C257 149 257 149 256.484 151.32c-.771 4.269-.487 8.566-.357 12.885.108 6.778.108 6.778-2.127 9.795-6.178 2.746-13.357 2.782-20 2-2.848-1.234-2.848-1.234-5-3-.707-2.191-.707-2.191-.813-4.563l-.144-2.378A194.492 194.492 0 0 1 228 162H117l-1 10c-4.508 3.38-4.508 3.38-8.695 3.398l-2.668.012-2.762-.035-2.785.035-2.66-.012-2.43-.01-2-.388c-2.316-3.474-2.31-5.057-2.45-9.172l-.13-3.703-.108-3.875-.142-3.828c-.19-5.942-.32-11.557.83-17.422l2-2c.205-2.56.317-5.062.375-7.625C92.982 114.678 98.428 108.9 107 100l-2.082-.516-2.73-.734-2.708-.703C96.546 96.809 95.527 95.774 94 93c-.375-2.737-.139-5.22 0-8 6.03-2.01 12.173-1.497 18 1l3 2 .93-2.048c1.406-3.074 2.832-6.138 4.257-9.202l1.463-3.223 1.455-3.105 1.318-2.857c2.26-3.677 4.93-6.01 9.034-7.393l2.356-.422c.79-.15 1.58-.3 2.394-.453L140 59c-3.095-2.585-5.989-3.878-9.813-5.125l-3.019-1.008c-16.411-4.492-34.58-2.783-49.48 5.383l-2.614 1.578C73 61 73 61 71 61v2h-3l-1 3c-1.453 1.36-1.453 1.36-3.25 2.75-2.658 2.172-4.636 4.284-6.563 7.125L55 79h-2l-.75 2.5a49.45 49.45 0 0 1-3.188 7.188c-7.887 15.54-7.48 34.37-2.183 50.699 2.025 4.721 4.646 9.109 7.281 13.511C56 156 56 156 57.113 158.336 58.3 160.56 59.708 161.083 62 162v2l3 1c1.02.98 2.021 1.979 3 3l2 1v2l2.23.852c2.49 1.032 4.732 2.212 7.082 3.523 15.65 7.813 32.534 8.793 49.192 3.84 6.17-2.144 12.052-4.586 17.496-8.215 3.453-.55 6.946-.604 10.438-.75l2.892-.168 2.791-.129 2.545-.12c2.566.184 4.133.872 6.334 2.167-.086 2.913-.58 4.568-2.625 6.668A127.43 127.43 0 0 1 163 183l.656 1.758c3.21 9.006 3.21 9.006 2.344 13.242-2.02 2.02-3.68 3.442-6 5l-2.438 1.813c-3.585 1.661-5.646 1.862-9.562 1.187-2.663-2.066-4.812-4.448-7-7l-2-2-2.195.656c-9.603 2.766-9.603 2.766-14.805 2.344l-.113 1.758c-.42 4.989-.993 9.005-3.887 13.242-5.13 3.32-11.648 2.48-17.375 1.313-4.448-3.92-4.703-9.644-5.625-15.313-2.06-.507-4.124-1.005-6.188-1.5l-3.48-.844c-4.154-.823-4.154-.823-8.332-.656-1.808 1.456-1.808 1.456-3.188 3.438-2.321 3.032-3.436 4.321-7.312 5-5.21-.652-9.47-3.097-13.5-6.438-1.663-2.87-2.127-4.292-1.54-7.57.303-.843.604-1.686.915-2.555C53.389 186.975 54 185.099 54 182l-3-2v-2l-4-2v-2h-2l-1-2-3.563.438-2.207.265c-2.002.267-3.993.62-5.98.984-3.516.339-4.386.198-7.25-1.687-3.167-4.039-5.642-8.274-6.688-13.313 1.295-5.06 5.575-7.793 9.688-10.687l-.367-1.652L24 130c-.831-.182-1.663-.364-2.52-.55-1.086-.252-2.173-.504-3.293-.762l-3.269-.739C10.515 126.517 10.515 126.517 9 124a60.964 60.964 0 0 1-.438-8l-.06-2.195c.005-5.27.005-5.27 2.275-7.73 2.096-1.014 3.958-1.745 6.223-2.263l2-.48c2-.332 2-.332 6-.332l.375-3.938C25.899 94.282 26.863 89.67 28 85l-1.715-1.46-2.223-1.915-2.214-1.898c-2.398-2.241-2.8-3.237-3.125-6.52.33-3.83 1.418-5.475 3.715-8.52l1.933-2.613C26 60 26 60 27 59c6.14-.523 11.21 1.043 17 3l.781-1.766c1.317-2.414 2.77-4.051 4.719-5.984l1.844-1.86C53 51 53 51 55 51l-.945-2.668-1.18-3.52-1.195-3.48c-.763-3.741-.646-5.103 1.32-8.332 1.988-1.766 1.988-1.766 4.313-3.25l2.3-1.516C62.14 26.928 64.176 26.303 67 26c3.652 1.693 6.362 3.971 9 7v2c6.124-.567 12.411-1.285 18-4 1.604-2.728 1.604-2.728 2-6 2.58-7.37 5.028-9.292 12.938-9.375Zm36.374 49.75-2.388.093c-4.053.218-7.33.622-10.924 2.532-1.771 2.396-1.771 2.396-3.113 5.34l-1.592 3.22-1.608 3.377-1.666 3.366c-2.979 5.6-2.979 5.6-4.021 11.697h104l1-2a104.147 104.147 0 0 0-3.125-7l-.982-2.034a1045.62 1045.62 0 0 0-1.975-4.061 194.656 194.656 0 0 1-2.324-5.05l-1.219-2.668-1.04-2.332c-1.848-2.567-3.29-3.021-6.335-3.855-2.633-.31-5.17-.515-7.813-.625l-2.43-.113a628.127 628.127 0 0 0-52.445.113ZM99 123c.476 4.999 1.497 8.326 5 12 3.301 1.044 6.558.987 10 1l2.125.021c4.959.047 9.916.03 14.875-.021-.287-4.628-.287-4.628-2.269-8.671-2.09-1.605-3.519-1.908-6.118-2.278l-2.595-.381-2.706-.358-2.646-.392A93.876 93.876 0 0 0 99 123Zm129.25 1.313-2.863.357-2.746.38-2.484.334c-2.557.73-3.569 1.498-5.157 3.616-.73 3.61-.73 3.61-1 7 14.029.149 14.029.149 28-1a562.649 562.649 0 0 0 2-4.313l1.125-2.425c1.055-2.324 1.055-2.324.875-5.262-6.02-.175-11.792.482-17.75 1.313ZM142 130l-2 4 2 2v-3l62 1v-4h-62Zm0 7 1 3Zm59 0 2 2 1-2h-3Zm54 4 1 2Zm-56 1-1 2h3v-2h-2Zm-79 3c-.68 2.397-.68 2.397-1 5l2 2c2.108-.319 2.108-.319 4-1a88.406 88.406 0 0 0 1-5c-1.066-1.296-1.066-1.296-3.563-1.063L120 145Zm101 0c-1.108 1.883-1.108 1.883-2 4l1 2h5c.681-1.892.681-1.892 1-4l-2-2h-3Zm-75 3v2h52c-3.243-2.162-4.101-2.246-7.839-2.227h-2.972l-3.2.032-3.284.008c-3.464.011-6.928.037-10.393.062-2.347.01-4.694.02-7.04.027-5.758.022-11.515.056-17.272.098Z"/><path fill="#4D4B4C" d="m108.938 15.625 3.714-.086C116 16 116 16 118.363 17.664c1.927 2.75 2.414 4.775 2.887 8.086l.453 2.984L122 31c2.723.808 5.447 1.57 8.188 2.313l2.33.705c2.246.588 4.158 1.018 6.482.982 3.035-2.132 3.035-2.132 5-5 1.937-2.358 2.734-2.927 5.738-3.754 3.963-.299 5.62.567 9.012 2.567l2.86 1.644C164 32 164 32 166 34c.012 2.137.012 2.137-.313 4.688l-.304 2.714C165 44 165 44 164.063 47.75c-.4 3.169-.4 3.169 1.21 4.906 1.632 1.607 1.632 1.607 3.38 2.985C170 57 170 57 170 60c-24.983 1.148-24.983 1.148-35.902-4.465-14-6.938-32.017-6.204-46.668-1.824-4.38 1.646-8.356 3.701-12.356 6.117C73 61 73 61 71 61v2h-3l-1 3c-1.453 1.36-1.453 1.36-3.25 2.75-2.658 2.172-4.636 4.284-6.563 7.125L55 79h-2l-.75 2.5a49.45 49.45 0 0 1-3.188 7.188c-7.887 15.54-7.48 34.37-2.183 50.699 2.025 4.721 4.646 9.109 7.281 13.511C56 156 56 156 57.113 158.336 58.3 160.56 59.708 161.083 62 162v2l3 1c1.02.98 2.021 1.979 3 3l2 1v2l2.23.852c2.49 1.032 4.732 2.212 7.082 3.523 15.65 7.813 32.534 8.793 49.192 3.84 6.17-2.144 12.052-4.586 17.496-8.215 3.453-.55 6.946-.604 10.438-.75l2.892-.168 2.791-.129 2.545-.12c2.566.184 4.133.872 6.334 2.167-.086 2.913-.58 4.568-2.625 6.668A127.43 127.43 0 0 1 163 183l.656 1.758c3.21 9.006 3.21 9.006 2.344 13.242-2.02 2.02-3.68 3.442-6 5l-2.438 1.813c-3.585 1.661-5.646 1.862-9.562 1.187-2.663-2.066-4.812-4.448-7-7l-2-2-2.195.656c-9.603 2.766-9.603 2.766-14.805 2.344l-.113 1.758c-.42 4.989-.993 9.005-3.887 13.242-5.13 3.32-11.648 2.48-17.375 1.313-4.448-3.92-4.703-9.644-5.625-15.313-2.06-.507-4.124-1.005-6.188-1.5l-3.48-.844c-4.154-.823-4.154-.823-8.332-.656-1.808 1.456-1.808 1.456-3.188 3.438-2.321 3.032-3.436 4.321-7.312 5-5.21-.652-9.47-3.097-13.5-6.438-1.663-2.87-2.127-4.292-1.54-7.57.303-.843.604-1.686.915-2.555C53.389 186.975 54 185.099 54 182l-3-2v-2l-4-2v-2h-2l-1-2-3.563.438-2.207.265c-2.002.267-3.993.62-5.98.984-3.516.339-4.386.198-7.25-1.687-3.167-4.039-5.642-8.274-6.688-13.313 1.295-5.06 5.575-7.793 9.688-10.687l-.367-1.652L24 130c-.831-.182-1.663-.364-2.52-.55-1.086-.252-2.173-.504-3.293-.762l-3.269-.739C10.515 126.517 10.515 126.517 9 124a60.964 60.964 0 0 1-.438-8l-.06-2.195c.005-5.27.005-5.27 2.275-7.73 2.096-1.014 3.958-1.745 6.223-2.263l2-.48c2-.332 2-.332 6-.332l.375-3.938C25.899 94.282 26.863 89.67 28 85l-1.715-1.46-2.223-1.915-2.214-1.898c-2.398-2.241-2.8-3.237-3.125-6.52.33-3.83 1.418-5.475 3.715-8.52l1.933-2.613C26 60 26 60 27 59c6.14-.523 11.21 1.043 17 3l.781-1.766c1.317-2.414 2.77-4.051 4.719-5.984l1.844-1.86C53 51 53 51 55 51l-.945-2.668-1.18-3.52-1.195-3.48c-.763-3.741-.646-5.103 1.32-8.332 1.988-1.766 1.988-1.766 4.313-3.25l2.3-1.516C62.14 26.928 64.176 26.303 67 26c3.652 1.693 6.362 3.971 9 7v2c6.124-.567 12.411-1.285 18-4 1.604-2.728 1.604-2.728 2-6 2.58-7.37 5.028-9.292 12.938-9.375Z"/><path fill="#F9AF3E" d="m112 86 3 2 1-2c2.063-.625 2.063-.625 4-1a485.352 485.352 0 0 1-.375 5.438c-.07 1.009-.14 2.018-.21 3.058-.138.826-.274 1.653-.415 2.504l-2 1-1.25-2.875c-1.754-3.132-2.459-3.99-5.75-5.125v-2H96l1 8 2.3.148 3.013.227c.986.07 1.972.14 2.988.21C108 96 108 96 111 98l-2 5h-2v2l-2.375 1.313c-3.142 2.02-3.398 3.25-4.625 6.687l-2.063 2.5c-2.029 2.619-2.566 4.254-2.937 7.5h4l.84 2.152 1.097 2.785 1.09 2.778c.773 2.21.773 2.21 1.973 3.285 1.996.229 4 .395 6.004.535l3.682.264 3.876.263 3.89.276c3.182.225 6.365.445 9.548.662-1.127-4.97-1.127-4.97-4-9-2.709-.652-2.709-.652-5.883-1.07l-3.535-.528-3.707-.527-3.73-.55c-3.048-.45-6.096-.89-9.145-1.325v-1c25.158-.688 25.158-.688 29.8 3.703 2.44 4.393 2.214 7.4 1.2 12.297-25.053.632-25.053.632-32-4-.985-2.624-1.422-5.245-2-8h-2c-.922 6.212-1.122 12.226-1.063 18.5l.014 2.781c.012 2.24.028 4.48.049 6.719h2l1 4c6.23.025 12.46.043 18.689.055 2.12.005 4.24.012 6.361.02 3.043.013 6.087.018 9.13.023l2.885.015h2.669l2.355.007c1.998 0 1.998 0 3.911-1.12v-5h3v2c7.654-.117 15.308-.242 22.961-.372 2.606-.044 5.211-.085 7.817-.125 3.738-.058 7.476-.122 11.214-.187l3.548-.05 3.276-.06 2.893-.048c2.32-.013 2.32-.013 4.291-1.158.588-2.166 1.07-4.36 1.5-6.563 1.044-5.189 2.168-10.315 3.5-15.437h-2l.188 3c.015 3.77-1.028 6.616-2.454 10.066-.985 2.595-1.39 5.19-1.734 7.934-2.939.98-4.879 1.137-7.943 1.161l-3.044.03-3.286.012-3.382.017c-2.362.01-4.724.016-7.086.02-3.613.01-7.225.041-10.837.072-2.294.007-4.589.012-6.883.016l-3.274.038c-9.583-.029-9.583-.029-13.265-3.366-1.233-2.7-2.128-5.058-2.938-7.875l-.705-2.145c-1.364-4.508-1.305-6.773.643-10.98 8.423-.023 16.846-.04 25.27-.052 3.91-.005 7.822-.012 11.733-.023 3.773-.011 7.547-.017 11.32-.02 1.441-.002 2.882-.005 4.322-.01 2.016-.008 4.032-.008 6.048-.009l3.479-.006C205 128 205 128 208 129v-3h2v3l2-1v-2c4.692-1.701 9.288-2.728 14.188-3.563l2.258-.39c15.756-2.646 15.756-2.646 20.554-1.047-1.208-5.602-2.652-8.066-7-12a1049.33 1049.33 0 0 1-4-5l-2.25-2.188C234 100 234 100 234 98l1.793-.367A339.74 339.74 0 0 0 243 96l2.938-.625c2.539-1.693 2.631-2.608 3.375-5.5L250 86c-1.75-.054-3.5-.093-5.25-.125l-2.953-.07c-2.859.2-4.322.852-6.797 2.195h-3l1-3c3.107-1.231 6.255-1.134 9.563-1.125l2.878-.008C248 84 248 84 251 85c1.038 3.21 1.043 4.855.063 8.125-2.779 3.873-5.605 4.626-10.063 5.875l-3 1 1.793 1.906 2.394 2.594 2.356 2.531c5.76 6.96 8.206 11.841 8.27 20.969l.076 2.637c.058 2.12.087 4.242.111 6.363h2c2 2 2 2 2.23 4.207l-.043 2.606-.019 2.582C257 149 257 149 256.484 151.32c-.771 4.269-.487 8.566-.357 12.885.108 6.778.108 6.778-2.127 9.795-6.178 2.746-13.357 2.782-20 2-2.848-1.234-2.848-1.234-5-3-.707-2.191-.707-2.191-.813-4.563l-.144-2.378A194.492 194.492 0 0 1 228 162H117l-1 10c-4.508 3.38-4.508 3.38-8.695 3.398l-2.668.012-2.762-.035-2.785.035-2.66-.012-2.43-.01-2-.388c-2.316-3.474-2.31-5.057-2.45-9.172l-.13-3.703-.108-3.875-.142-3.828c-.19-5.942-.32-11.557.83-17.422l2-2c.205-2.56.317-5.062.375-7.625C92.982 114.678 98.428 108.9 107 100l-2.082-.516-2.73-.734-2.708-.703C96.546 96.809 95.527 95.774 94 93c-.375-2.737-.139-5.22 0-8 6.03-2.01 12.173-1.497 18 1Zm116.25 38.313-2.863.357-2.746.38-2.484.334c-2.557.73-3.569 1.498-5.157 3.616-.73 3.61-.73 3.61-1 7 14.029.149 14.029.149 28-1a562.649 562.649 0 0 0 2-4.313l1.125-2.425c1.055-2.324 1.055-2.324.875-5.262-6.02-.175-11.792.482-17.75 1.313ZM142 130l-2 4 2 2v-3l62 1v-4h-62Zm0 7 1 3Zm59 0 2 2 1-2h-3Zm54 4 1 2Zm-56 1-1 2h3v-2h-2Zm22 3c-1.108 1.883-1.108 1.883-2 4l1 2h5c.681-1.892.681-1.892 1-4l-2-2h-3Zm-75 3v2h52c-3.243-2.162-4.101-2.246-7.839-2.227h-2.972l-3.2.032-3.284.008c-3.464.011-6.928.037-10.393.062-2.347.01-4.694.02-7.04.027-5.758.022-11.515.056-17.272.098Z"/><path fill="#D09A5A" d="M140 128c8.458-.023 16.915-.04 25.373-.052 3.927-.005 7.854-.012 11.78-.023 3.787-.011 7.574-.017 11.36-.02 1.448-.002 2.896-.005 4.344-.01 2.02-.008 4.042-.008 6.063-.009l3.492-.006C205 128 205 128 206 129c.38 5.405-.183 9.13-2.266 14.102-.997 2.579-1.392 5.164-1.734 7.898-2.939.98-4.879 1.137-7.943 1.161l-3.044.03-3.286.012-3.382.017c-2.362.01-4.724.016-7.086.02-3.613.01-7.225.041-10.837.072-2.294.007-4.589.012-6.883.016l-3.274.038c-9.583-.029-9.583-.029-13.265-3.366-1.233-2.7-2.128-5.058-2.938-7.875l-.705-2.145c-1.364-4.508-1.305-6.773.643-10.98Zm2 2-2 4 2 2v-3l62 1v-4h-62Zm0 7 1 3Zm59 0 2 2 1-2h-3Zm-2 5-1 2h3v-2h-2Zm-53 6v2h52c-3.243-2.162-4.101-2.246-7.839-2.227h-2.972l-3.2.032-3.284.008c-3.464.011-6.928.037-10.393.062-2.347.01-4.694.02-7.04.027-5.758.022-11.515.056-17.272.098Z"/><path fill="#DFAF65" d="m170 57 1 2c.77-.01 1.54-.02 2.332-.032 37.558-.443 37.558-.443 43.29 4.118 2.794 3.423 4.632 6.87 6.503 10.852l1.012 2.091c.652 1.35 1.301 2.702 1.946 4.056A439.321 439.321 0 0 0 230 88h2c-.266 3.19-.756 4.725-2.901 7.143-4.484 2.687-8.354 2.386-13.489 2.311l-3.165.002c-3.447-.003-6.893-.034-10.34-.065-2.391-.008-4.783-.014-7.175-.018a4094.99 4094.99 0 0 1-18.874-.098c-6.422-.041-12.843-.06-19.265-.08A11531.72 11531.72 0 0 1 119 97V86h-2c1.517-4.937 3.498-9.493 5.75-14.125l.977-2.129c2.3-4.715 4.327-7.517 9.273-9.746 8.331-1.522 16.837-.995 25.25-.563l3.45.159c2.767.128 5.533.262 8.3.404v-3Zm-24.688 8.375-2.388.093c-4.053.218-7.33.622-10.924 2.532-1.771 2.396-1.771 2.396-3.113 5.34l-1.592 3.22-1.608 3.377-1.666 3.366c-2.979 5.6-2.979 5.6-4.021 11.697h104l1-2a104.147 104.147 0 0 0-3.125-7l-.982-2.034a1045.62 1045.62 0 0 0-1.975-4.061 194.656 194.656 0 0 1-2.324-5.05l-1.219-2.668-1.04-2.332c-1.848-2.567-3.29-3.021-6.335-3.855-2.633-.31-5.17-.515-7.813-.625l-2.43-.113a628.127 628.127 0 0 0-52.445.113Z"/><path fill="#D7A869" d="m112 86 3 2 1-2c2.063-.625 2.063-.625 4-1a485.352 485.352 0 0 1-.375 5.438c-.07 1.009-.14 2.018-.21 3.058-.138.826-.274 1.653-.415 2.504l-2 1-1.25-2.875c-1.754-3.132-2.459-3.99-5.75-5.125v-2H96l1 8 2.3.148 3.013.227c.986.07 1.972.14 2.988.21C108 96 108 96 111 98l-2 5h-2v2l-2.375 1.313c-3.142 2.02-3.398 3.25-4.625 6.687l-2.063 2.5c-2.029 2.619-2.566 4.254-2.937 7.5h4l.84 2.152 1.097 2.785 1.09 2.778c.773 2.21.773 2.21 1.973 3.285 1.996.229 4 .395 6.004.535l3.682.264 3.876.263 3.89.276c3.182.225 6.365.445 9.548.662-1.127-4.97-1.127-4.97-4-9-2.709-.652-2.709-.652-5.883-1.07l-3.535-.528-3.707-.527-3.73-.55c-3.048-.45-6.096-.89-9.145-1.325v-1c25.158-.688 25.158-.688 29.8 3.703 2.44 4.393 2.214 7.4 1.2 12.297-25.053.632-25.053.632-32-4-.985-2.624-1.422-5.245-2-8h-2c-.922 6.212-1.122 12.226-1.063 18.5l.014 2.781c.012 2.24.028 4.48.049 6.719h2l1 4 1.79.013c14.39.103 28.78.212 43.17.326 6.958.056 13.917.109 20.876.158 6.717.048 13.435.1 20.152.156 2.561.02 5.122.039 7.683.056 3.591.024 7.182.054 10.772.086l3.2.017c5.54.055 10.876.373 16.357 1.188v1l-105 1-1 10c-4.508 3.38-4.508 3.38-8.695 3.398l-2.668.012-2.762-.035-2.785.035-2.66-.012-2.43-.01-2-.388c-2.316-3.474-2.31-5.057-2.45-9.172l-.13-3.703-.108-3.875-.142-3.828c-.19-5.942-.32-11.557.83-17.422l2-2c.205-2.56.317-5.062.375-7.625C92.982 114.678 98.428 108.9 107 100l-2.082-.516-2.73-.734-2.708-.703C96.546 96.809 95.527 95.774 94 93c-.375-2.737-.139-5.22 0-8 6.03-2.01 12.173-1.497 18 1Z"/><path fill="#DAAA68" d="m242.563 83.875 2.878-.008C248 84 248 84 251 85c1.038 3.21 1.043 4.855.063 8.125-2.779 3.873-5.605 4.626-10.063 5.875l-3 1 1.793 1.906 2.394 2.594 2.356 2.531c5.76 6.96 8.206 11.841 8.27 20.969l.076 2.637c.058 2.12.087 4.242.111 6.363h2c2 2 2 2 2.23 4.207l-.043 2.606-.019 2.582C257 149 257 149 256.484 151.32c-.771 4.269-.487 8.566-.357 12.885.108 6.778.108 6.778-2.127 9.795-6.178 2.746-13.357 2.782-20 2-2.848-1.234-2.848-1.234-5-3-.707-2.191-.707-2.191-.813-4.563l-.144-2.378A194.492 194.492 0 0 1 228 162l-5-1 1-2 1.772-.012c2.66-.033 5.319-.104 7.978-.175l2.79-.018c5.487-.13 5.487-.13 10.023-2.975 4.546-8.92 3.7-20.066 3.437-29.82h-2l-.48 1.863-.708 2.45-.667 2.425c-1.54 3.044-3.093 3.776-6.145 5.262-3.046.34-3.046.34-6.395.293l-3.642-.03c-1.246-.024-2.492-.05-3.775-.076l-3.834-.04c-3.119-.036-6.236-.085-9.354-.147-1.055-5.728-.778-7.94 2-13 9.112-3.037 24.784-7.072 34-4-1.208-5.602-2.652-8.066-7-12a1049.33 1049.33 0 0 1-4-5l-2.25-2.188C234 100 234 100 234 98l1.793-.367A339.74 339.74 0 0 0 243 96l2.938-.625c2.539-1.693 2.631-2.608 3.375-5.5L250 86c-1.75-.054-3.5-.093-5.25-.125l-2.953-.07c-2.859.2-4.322.852-6.797 2.195h-3l1-3c3.107-1.231 6.255-1.134 9.563-1.125Zm-14.313 40.438-2.863.357-2.746.38-2.484.334c-2.557.73-3.569 1.498-5.157 3.616-.73 3.61-.73 3.61-1 7 14.029.149 14.029.149 28-1a562.649 562.649 0 0 0 2-4.313l1.125-2.425c1.055-2.324 1.055-2.324.875-5.262-6.02-.175-11.792.482-17.75 1.313ZM255 141l1 2Z"/><path fill="#C18F54" d="M142 133h61v3l-44 1v2h38l1-2v2h3l-1 2-54-1v2l5 1-4 1c4.75 1.22 9.372 1.127 14.238 1.098l2.67-.005c2.801-.005 5.603-.018 8.405-.03 1.904-.006 3.808-.01 5.712-.014 4.659-.011 9.317-.028 13.975-.049l-4-2 10-1v2l3 1-1 5-2.183-.487c-2.687-.49-5.157-.669-7.883-.718l-2.971-.06-3.17-.051-3.274-.063a5549.56 5549.56 0 0 0-10.332-.184l-7.013-.13c-5.725-.107-11.45-.21-17.174-.307v2c-3-1-3-1-3.984-2.672-1.53-4.15-2.509-6.974-1.016-11.328l1-3Zm0 4 1 3Z"/><path fill="#54504B" d="M254 141h1c.82 6.469 1.183 12.794 1.188 19.313l.037 2.666.005 2.572.013 2.302c-.28 2.482-.89 4.05-2.243 6.147-6.178 2.746-13.357 2.782-20 2-2.844-1.238-2.844-1.238-5-3-.742-2.156-.742-2.156-.875-4.5l-.18-2.344C228 164 228 164 229 161l3.762-.008c1.642-.037 3.284-.076 4.925-.117l2.475.008c4.536-.147 6.311-.422 9.838-3.508 2.13-3.595 2.849-6.121 3.313-10.25l.425-3.492L254 141Z"/><path fill="#F6AF47" d="M250 86c.25 5.625.25 5.625-2 9-2.242.95-2.242.95-4.875 1.688-.864.25-1.727.502-2.617.761C238 98 238 98 234 98l2 5c-1.438-.31-2.875-.623-4.313-.938l-2.425-.527C227 101 227 101 224 100l-1 1c-2.292.088-4.586.107-6.879.098l-2.08-.005a2050.78 2050.78 0 0 1-6.603-.03A4240.961 4240.961 0 0 1 192 101v-2h-46v-2l3.017-.018c9.373-.057 18.747-.13 28.12-.218 4.819-.044 9.638-.084 14.457-.11 4.65-.026 9.298-.067 13.947-.117 1.775-.017 3.55-.028 5.326-.035a810.55 810.55 0 0 0 7.449-.07l2.234.005c3.968-.032 3.968-.032 7.305-1.964L229 93h2l.063-2.313C232 88 232 88 234.875 86.126c4.96-1.854 10.008-.893 15.125-.125Z"/><path fill="#4D4C4C" d="M90 139h1l.188 3.875c.522 4.926 2.3 8.648 4.656 12.96C97 158 97 158 98 161l19 1c-.495 9.528-.495 9.528-2.745 11.63-2.566 1.559-3.975 1.756-6.95 1.768l-2.668.012-2.762-.035-2.785.035-2.66-.012-2.43-.01-2-.388c-2.326-3.49-2.31-5.106-2.45-9.242l-.13-3.73-.108-3.903-.142-3.879c-.332-10.412-.332-10.412.83-15.246Z"/><path fill="#F9AF3E" d="m98 136 2.52.441c5.02.806 10.068 1.367 15.117 1.961C119 139 119 139 122 141v2l-1.938 1.688c-2.397 2.246-2.397 2.246-2.5 5.875C117 154 117 154 115.126 155.875c-4.594 1.654-9.252 2.094-14.125 2.125l-2-1a280.14 280.14 0 0 1-1-4l-2-2c-.484-2.094-.484-2.094-.75-4.5l-.297-2.406C95 142 95 142 97 140c.643-2.069.643-2.069 1-4Z"/><path fill="#F1AF4D" d="m249 140 2 1a237.7 237.7 0 0 1-.688 5.625l-.386 3.164c-1.136 3.939-2.518 6.883-5.926 9.211-3.402.828-6.698.84-10.188.813-1.806.024-3.612.05-5.417.082l-2.411-.005c-2.06-.017-2.06-.017-3.984 1.11-1.775-.236-3.55-.474-5.323-.722-6.08-.631-12.225-.524-18.333-.594l-4.54-.063c-3.958-.055-7.917-.105-11.876-.153-4.049-.05-8.098-.106-12.147-.161-7.927-.108-15.854-.209-23.781-.307v-1h57l1-3 2.563.563c3.714.472 6.767.098 10.437-.563l1-4h-2c-.879-6.152-.879-6.152-1-8 1-1 1-1 3.145-1.02 7.16.556 7.16.556 10.48 2.77 1.677 2.744 2.022 4.094 1.375 7.25-2.044 1.976-3.118 3-6 3v2c2.543-.115 5.083-.241 7.625-.375.713-.03 1.426-.062 2.16-.094 4.366-.24 8.14-.795 12.215-2.531 2.61-4.102 2.606-9.246 3-14Zm-28 5c-1.108 1.883-1.108 1.883-2 4l1 2h5c.681-1.892.681-1.892 1-4l-2-2h-3Z"/><path fill="#F49323" d="M250 86c.25 5.625.25 5.625-2 9-5.868 2.65-11.638 3.353-18 3 .875-7.75.875-7.75 2-10 6.134-3.6 11.106-3.035 18-2Z"/><path fill="#474245" d="M254 141h1c.82 6.469 1.183 12.794 1.188 19.313l.037 2.666.005 2.572.013 2.302c-.28 2.482-.89 4.05-2.243 6.147-6.364 2.829-13.157 2.185-20 2v-2l14-2v-7l1-2h-2c.422-2.845 1.022-4.025 2.969-6.219 2.404-3.292 2.794-5.576 3.281-9.594.15-1.16.3-2.322.453-3.519L254 141Z"/><path fill="#50443E" d="M90 139h1l.188 3.875c.522 4.926 2.3 8.648 4.656 12.96C97 158 97 158 98 161l17 1v1H95v5l-3 1v3c3.49 1.163 6.323 1.168 10 1.188l3.75.042c3.398.029 3.398.029 6.25-2.23l3-1 1-3c.25 2.313.25 2.313 0 5-2.829 2.7-4.83 3.382-8.695 3.398l-2.668.012-2.762-.035-2.785.035-2.66-.012-2.43-.01-2-.388c-2.326-3.49-2.31-5.106-2.45-9.242l-.13-3.73-.108-3.903-.142-3.879c-.332-10.412-.332-10.412.83-15.246Z"/><path fill="#F1B04D" d="M122.438 142.75C125 143 125 143 128 145c-.75 6.75-.75 6.75-3 9-2.625.125-2.625.125-5 0l1 3h5v-2c2.627.281 5.25.574 7.875.875l2.262.238c5.636.66 5.636.66 7.863 2.887h-43c3.168-2.112 5.23-2.368 8.965-2.656 2.418-.409 4.008-.949 6.035-2.344.84-2.108.84-2.108 1.125-4.5 1.004-6.308 1.004-6.308 5.313-6.75ZM120 145c-.68 2.397-.68 2.397-1 5l2 2c2.108-.319 2.108-.319 4-1a88.406 88.406 0 0 0 1-5c-1.066-1.296-1.066-1.296-3.563-1.063L120 145Z"/><path fill="#DDAC62" d="m150.563 59.375 2.767.172c2.224.14 4.447.29 6.67.453v2h-11v2l4 1v1c-1.645.09-1.645.09-3.324.184l-4.363.254-2.186.119c-3.794.225-7.414.571-11.127 1.443l-.313 1.938L131 72l-3 1 1-9h2v-3c6.792-1.81 12.576-2.138 19.563-1.625Z"/><path fill="#EDB14F" d="M206 130h2v2l2 1h-3l-.113 2.344c-.408 6.455-1.118 11.785-3.887 17.656-2.55 1.275-4.33 1.12-7.184 1.114h-3.276l-3.548-.016-3.623-.005c-3.832-.005-7.663-.018-11.494-.03-2.592-.006-5.185-.01-7.777-.014-6.366-.011-12.732-.028-19.098-.049v-2h-3v-2l1.662.493c2.65.575 5.037.627 7.75.62h3.274l3.517-.015 3.615-.005c3.81-.005 7.621-.018 11.432-.03 2.583-.006 5.167-.01 7.75-.014 6.333-.011 12.667-.028 19-.049l-.039-2.87c.036-2.903.328-4.47 1.476-7.067 1.52-3.72 2.147-7.074 2.563-11.063Z"/><path fill="#E0AB5B" d="M250 129h1l1 7 3 1c2 2 2 2 2.195 4.383l-.07 2.742-.055 2.758L257 149c-2.047-3.719-2.047-3.719-1.625-6.25L256 141h-2l.125 3.563c-.007 4.198-.604 7.515-2.125 11.437l-3 1-2 4h-24l1-2 1.772-.012c2.66-.033 5.319-.104 7.978-.175 1.38-.01 1.38-.01 2.79-.018 5.483-.131 5.483-.131 10.023-2.963 4.086-8.05 3.756-17.985 3.437-26.832Z"/><path fill="#F19428" d="M96 87h14v2l4 1 1 8a412.729 412.729 0 0 1-12.875-1.938l-2.867-.464L97 95c-1-2-1-2-1-8Z"/><path fill="#D6964F" d="m112 86 3 2 1-2c2.063-.625 2.063-.625 4-1a485.352 485.352 0 0 1-.375 5.438c-.07 1.009-.14 2.018-.21 3.058-.138.826-.274 1.653-.415 2.504l-2 1-1.25-2.875c-1.754-3.132-2.459-3.99-5.75-5.125v-2H96l1 8 2.3.148 3.013.227c.986.07 1.972.14 2.988.21C108 96 108 96 111 98l-2 5h-2v2h-2c.875-3.875.875-3.875 2-5l-2.082-.516-2.73-.734-2.708-.703C96.546 96.809 95.527 95.774 94 93c-.375-2.737-.139-5.22 0-8 6.03-2.01 12.173-1.497 18 1Z"/><path fill="#D69C4F" d="M140 128c2.708-.36 2.708-.36 6.194-.34h3.943l4.277.047a2027.58 2027.58 0 0 1 15.855.087c3.908.03 7.815.044 11.723.06 7.67.032 15.339.083 23.008.146l1 2-64 1a84.76 84.76 0 0 0-2 7c-1.125-3.313-1.125-3.313-2-7l2-3Z"/><path fill="#ECB050" d="m95 125 3 1c.753 2.004 1.202 4.001 1.668 6.09 1.845 2.645 3.959 2.911 7.017 3.536 3.927.634 7.857 1.106 11.815 1.499l2.492.262c2.002.21 4.005.412 6.008.613v1c-10.036 1.676-19.437.393-29-3l-.438 2.188C97 141 97 141 96.313 143.438c-.41 3.36.297 5.501 1.688 8.562l3 1h-2v4l2 1h-3l-1-4h-2c-1.648-3.295-1.145-6.944-1.125-10.563l.006-2.464c.039-5.391.328-10.634 1.119-15.973Z"/><path fill="#DFA34F" d="m225 90 3 3-2 4H119v-1h105l1-6Z"/><path fill="#4D4C4D" d="M230 162c3.258-.293 3.258-.293 7.125-.188l3.883.083L244 162l-1.973 1.879c-2.148 1.883-2.148 1.883-2.464 4.059-.876 3.208-3.174 4.857-5.563 7.062l-5-2c-1.25-7.625-1.25-7.625 1-11Z"/><path fill="#F0AF4E" d="M218.145 141.98c7.16.556 7.16.556 10.48 2.77 1.647 2.694 1.865 4.145 1.375 7.25-2 2-2 2-4.438 2.125L223 154h-3c-2.125-1-2.125-1-4-3-.72-2.739-.861-5.137-1-8 1-1 1-1 3.145-1.02ZM221 145c-1.108 1.883-1.108 1.883-2 4l1 2h5c.681-1.892.681-1.892 1-4l-2-2h-3Z"/><path fill="#DCAD5C" d="M215 69h5l1.898 3.395 2.477 4.418 1.25 2.236c.4.712.8 1.424 1.21 2.158l1.112 1.984c.955 1.64 2 3.229 3.053 4.809l1 2-1 3-3 1c-2.338-2.87-3.648-5.574-5-9l-2-2 .563-2.375c.752-2.685.752-2.685-1-4.813L219 74v-2l-2-1-1 2-1-4Z"/><path fill="#A8845A" d="M91 136c2.354 3.53 2.658 6.586 3.125 10.688l.262 2.126c.211 1.728.413 3.457.613 5.186h2l1 4 18 2v2c-2.438.027-4.875.047-7.313.063l-2.091.025c-3.144.015-5.59-.086-8.596-1.088-1.316-1.672-1.316-1.672-2.563-3.75l-1.253-2.047c-2.32-4.319-3.468-8.057-3.871-12.953l-.262-2.922L90 137l1-1Z"/><path fill="#D6A05F" d="M101 122c25.158-.688 25.158-.688 29.8 3.703 2.613 4.704 2.14 6.66 1.2 12.297h-15v-1l13-1c-.33-5.015-.33-5.015-3-9-2.709-.652-2.709-.652-5.883-1.07l-3.535-.528-3.707-.527-3.73-.55c-3.048-.45-6.096-.89-9.145-1.325v-1Z"/><path fill="#F3B04E" d="M241 108c2 1.375 2 1.375 4 3v2l3 1 1 7-2.465.113c-9.69.556-19.016 2.055-28.535 3.887l-1-2 2.124-.335c3.189-.508 6.376-1.024 9.564-1.54l3.341-.527 3.233-.528 2.967-.476c2.762-.592 5.186-1.467 7.771-2.594l-3-1-.438-2.313c-.525-2.769-.525-2.769-1.562-5.687Z"/><path fill="#474144" d="M43 168.875 45 170l3 1v2h2l1 3h3c2.97 4.634 3.209 7.777 2.617 13.047C56 191 56 191 53 193c-.09-3.832.121-7.266 1-11l-3-2v-2l-4-2v-2h-2l-1-2c-1.895-.465-1.895-.465-4.063-.625L36 171c2.352-2.352 3.777-3.535 7-2.125Z"/><path fill="#474344" d="M134 194h5v3c-11.522 3.444-11.522 3.444-17 3l-.113 1.758c-.426 5.059-1.258 8.785-3.887 13.242l-2-1 .938-3.625a63.48 63.48 0 0 0 1.5-7.75C119 200 119 200 122 198c2.856-.603 5.714-1.013 8.602-1.438L133 196l1-2Z"/><path fill="#423935" d="M254 141h1c.848 6.567 1.126 12.946 1.063 19.563l-.014 2.767c-.012 2.223-.028 4.447-.049 6.67h-2l-1-11-3 3-3-1c1.675-3.736 1.675-3.736 3.5-5.219 2.208-2.621 2.255-5.108 2.688-8.469l.48-3.574L254 141Z"/><path fill="#564530" d="M161 51c4.252.472 6.3 2.85 9 6v3c-4.125.058-8.25.094-12.375.125-1.176.017-2.351.034-3.563.05l-3.398.02-3.142.032C145 60 145 60 143 58l24-1-6-5v-1Z"/><path fill="#353334" d="M90 154h1l1 18c3.49 1.163 6.323 1.168 10 1.188l3.75.042c3.398.029 3.398.029 6.25-2.23l3-1 1-3c.25 2.313.25 2.313 0 5-2.829 2.7-4.83 3.382-8.695 3.398l-2.668.012-2.762-.035-2.785.035-2.66-.012-2.43-.01-2-.388c-2.067-3.1-2.245-3.73-2.195-7.23l.02-2.432.05-2.525.027-2.561c.024-2.084.06-4.168.098-6.252Z"/><path fill="#484245" d="m109.188 15.875 3.855.055L116 16v2l-14 1 1 4-2 3-1-2-2 5c-1.188-1.563-1.188-1.563-2-4 2.578-7.871 5.13-9.273 13.188-9.125Z"/><path fill="#E09236" d="m244.688 85.438 3.011.308L250 86c.25 5.625.25 5.625-2 9-2.313.984-2.313.984-5 1.75l-2.688.797C238 98 238 98 236 97c3.668-1.962 6.872-3.393 11-4v-4l-1.898-.148-2.477-.227-2.46-.21C238 88 238 88 236 86c3.311-1.104 5.247-.927 8.688-.563Z"/><path fill="#555150" d="M170 171c-1 3-1 3-3 5l-2 3h-2l-1 2c-1-3-1-3-1-8l-15-1v-1c3.062-.195 6.124-.382 9.188-.563l2.619-.17c4.24-.243 8.051-.425 12.193.733Z"/><path fill="#8D7959" d="M253 137h2c2 2 2 2 2.195 4.383l-.07 2.742-.055 2.758L257 149c-2.047-3.719-2.047-3.719-1.625-6.25L256 141h-2l.125 3.563c-.007 4.198-.604 7.515-2.125 11.437l-3 1-1 3-1-3 3-1c1.857-4.564 1.439-10.127 1.719-14.98C252 138 252 138 253 137Z"/><path fill="#DAAF6A" d="M145 59c1.813 1.5 1.813 1.5 3 3-2 2-2 2-4.207 2.266-8.642-.052-8.642-.052-12.793-2.266 3.433-3.433 9.276-3.525 14-3Z"/><path fill="#403D3D" d="M163 172h8c-.063 2.125-.063 2.125-1 5a67.344 67.344 0 0 1-3.625 2.813c-1.947 1.417-1.947 1.417-3.375 3.187-.333 3.017.225 5.005 1 8-2.813-3.18-4.088-5.704-4-10 2.875-2.75 2.875-2.75 6-5l1-2-4-2Z"/><path fill="#453F3F" d="M103 48c10.52-.369 19.754.31 30 3v2l2 1c-16.875-1.875-16.875-1.875-19-4a167.62 167.62 0 0 0-6.563-.563l-3.628-.253L103 49v-1Z"/><path fill="#413E3E" d="m153.125 171.938 2.285.013c1.863.012 3.727.03 5.59.049v1l-2.922.043-3.828.144-3.797.106c-4.226.865-5.083 2.235-7.453 5.707h-2v-2l-1.813 1C137 179 137 179 134 179v-2a161725421.615 161725421.615 0 0 1 4.375-1.938l2.46-1.09c4.28-1.922 7.611-2.087 12.29-2.035Z"/><path fill="#CC9D65" d="M247 158v3h-24l1-2a16112.216 16112.216 0 0 1 12.627-.645l2.705-.136 2.491-.127c1.725-.073 3.451-.092 5.177-.092Z"/><path fill="#D29F51" d="M122.438 142.75C125 143 125 143 128 145c-.875 6.875-.875 6.875-2 8-3.438.25-3.438.25-7 0-2-3-2-3-1.75-5.563.995-3.234 1.754-4.335 5.188-4.687ZM120 145c-.68 2.397-.68 2.397-1 5l2 2c2.108-.319 2.108-.319 4-1a88.406 88.406 0 0 0 1-5c-1.066-1.296-1.066-1.296-3.563-1.063L120 145Z"/><path fill="#E0AB75" d="m242.563 83.875 2.878-.008C248 84 248 84 251 85c1.15 3.553 1.087 4.8-.438 8.313L249 96c-1.274-2.547-.802-3.428-.063-6.125l.59-2.195L250 86c-1.75-.054-3.5-.093-5.25-.125l-2.953-.07c-2.859.2-4.322.852-6.797 2.195h-3l1-3c3.107-1.231 6.255-1.134 9.563-1.125Z"/><path fill="#F0B14E" d="M214 138h15v2c-7.055 3.256-7.055 3.256-11 2.188L216 141v-2l-2-1Z"/><path fill="#C78E4C" d="M198 142v2l3 1-1 5-4-2v-2l-1.75-.375c-2.273-.631-4.175-1.514-6.25-2.625 3.38-1.04 6.478-1.08 10-1Z"/><path fill="#E9B25D" d="M224 84c2.375.313 2.375.313 5 1 2 3 2 3 3 5l-1 3-3 1c-2.834-3.203-3.52-5.78-4-10Z"/><path fill="#CDA359" d="M146 60h14v2h-11v2l4 1c-3.478 1.16-5.459.708-9 0l2-5Z"/><path fill="#D9A762" d="M221.875 143.813C225 144 225 144 228 146l-1 6c-6.75.125-6.75.125-9-1-.043-2-.04-4 0-6 1-1 1-1 3.875-1.188ZM221 145c-1.108 1.883-1.108 1.883-2 4l1 2h5c.681-1.892.681-1.892 1-4l-2-2h-3Z"/><path fill="#EC932E" d="M238 87v2h-3l-.438 2.25c-.464 2.27-.98 4.508-1.562 6.75h-3c.875-7.75.875-7.75 2-10 3-1 3-1 6-1Z"/><path fill="#E4A951" d="M119 85c1.242 2.484.982 3.822.688 6.563l-.239 2.44L119 96l-2 1c-3-5.625-3-5.625-3-9 2.5-1.688 2.5-1.688 5-3Z"/><path fill="#444142" d="M75 197c0 3.936-1.429 5.126-4 8-2.709 1.354-5.01 1.065-8 1v-3l2.188-.375c2.77-.615 5.209-1.51 7.812-2.625v-2l2-1Z"/><path fill="#413F40" d="M14.125 105.875 17 106l-1.938.75c-2.201 1.026-2.201 1.026-2.624 3L12 112l-.535 2.578-.527 2.672-.536 2.703L10 122H9a730.672 730.672 0 0 1-.125-6.875l-.07-3.867c.262-4.378.912-5.207 5.32-5.383Z"/><path fill="#453B37" d="M230 162c3.258-.293 3.258-.293 7.125-.188l3.883.083L244 162v1l-2.082.113-2.73.2-2.708.175c-2.821.582-3.795 1.206-5.48 3.512-.25 2.626-.25 2.626 0 5h-2c-1.25-6.625-1.25-6.625 1-10Z"/><path fill="#D2A156" d="m170 57 1 2c2.126.467 2.126.467 4.563.625l2.503.227L180 60v1l-5 1v2h-14v-1l8-1 1-5Z"/><path fill="#413E3E" d="M164 192h2c.375 2.688.375 2.688 0 6-3.68 3.855-6.787 5.635-12 7 4.625-4.875 4.625-4.875 8-6 1.23-3.512 1.23-3.512 2-7Z"/><path fill="#392B24" d="M254 141h1c.625 5.025 1.13 9.925 1 15l-3 1c-1.226-3.678-.703-5.882-.063-9.688l.59-3.574L254 141Z"/><path fill="#D9B272" d="m221 77 2 2c-.375 2.125-.375 2.125-1 4l2 1c.414 2.066.414 2.066.625 4.563l.227 2.503L225 93c-1.897-2.845-3.233-5.573-4.625-8.688l-1.352-3.011L218 79l3-2Z"/><path fill="#403C3D" d="M140 193h2l.75 2.188c1.876 4.22 3.77 7.106 8 9.125L153 205v1c-2.063.438-2.063.438-5 0-3.98-2.89-6.634-5.657-7.938-10.438L140 193Z"/><path fill="#D99E59" d="M244 95h4v2c-3.877 1.193-6.916 2-11 2l1 4h-2l-2-5c.957-.2.957-.2 1.934-.402.826-.177 1.652-.354 2.504-.535l2.496-.528c2.043-.343 2.043-.343 3.066-1.535Z"/><path fill="#444142" d="M50 150c4.268 1.423 5.703 4.263 8 8 1.313 2.938 1.313 2.938 2 5-3.629-1.452-5.154-3.24-7.25-6.5l-1.578-2.406C50 152 50 152 50 150Z"/><path fill="#DA9E5C" d="M99 97c4.161-.082 7.947.018 12 1l-2 5h-2v2h-2c.875-3.875.875-3.875 2-5l-8-2v-1Z"/><path fill="#403E3F" d="M71 172c4.604 1.316 8.183 3.092 12 6v2c-4.625-1.439-7.976-3.317-12-6v-2Z"/><path fill="#464445" d="M26 96h2v5l2 1c-1.813 1.563-1.813 1.563-4 3l-3-1h2l-.063-3.438C25 97 25 97 26 96Z"/><path fill="#E5B364" d="M160 60h11l-2 3c-1.945.293-1.945.293-4.125.188L161 63l-1-3Z"/><path fill="#464344" d="m68 27 1 3h-3c-2.674.286-5.334.65-8 1v-2c6.625-3.125 6.625-3.125 10-2Z"/><path fill="#494645" d="m249 169 3 1c.688 2.063.688 2.063 1 4-3.576 1.238-6.337.75-10 0v-1l5-1 1-3Z"/><path fill="#464143" d="M26 60c2.125.375 2.125.375 4 1l-2.375 2.25C25.435 65.544 24.173 67.122 23 70l-2-1c2.75-6.75 2.75-6.75 5-9Z"/><path fill="#3F3A3E" d="m73 57 3 1c-1.375 1.5-1.375 1.5-3 3h-2v2l-4-1v-2l6-1v-2Z"/><path fill="#D8985A" d="M142 140c3.938 4.308 3.938 4.308 4.25 7.813L146 150l-3-1c-1.25-3.438-1.25-3.438-2-7l1-2Z"/><path fill="#3D393B" d="M20 160c3.483 3.019 4.792 5.57 6 10-3-1-3-1-4.688-3.313C20 164 20 164 20 160Z"/><path fill="#474344" d="M26 81c2 0 2 0 3.688 1.625 1.767 3.198 1.288 4.921.312 8.375l-2 2 .125-3.75c.012-3.266-.268-5.465-2.125-8.25Z"/><path fill="#403B3C" d="M53 76h2v3h-2l-.813 2.938L51 85l-3 1c1.333-3.588 2.83-6.836 5-10Z"/><path fill="#DCA050" d="M140 128h2l-1 10-2-1c-.75-2.875-.75-2.875-1-6l2-3Z"/><path fill="#EDB14D" d="M248 126h2v11h-1v-6l-3 1 2-6Z"/><path fill="#464445" d="M132 35c5.75-.125 5.75-.125 8 1l-1 3c-3.27-.564-4.826-1.5-7-4Z"/><path fill="#3A3738" d="M118 206h2c1 3 1 3-.438 6.188L118 215l-2-1 2-8Z"/><path fill="#DFB479" d="M131 62v2h-2l-.938 2.375C127 69 127 69 126 71h-2c2.6-9 2.6-9 7-9Z"/><path fill="#E9B25A" d="M128 66h2c-.547 3.375-1.055 5.082-3 8h-2c1.875-6.875 1.875-6.875 3-8Z"/><path fill="#454243" d="m117 19 3 1v7c-2.063-1.75-2.063-1.75-4-4 .25-2.25.25-2.25 1-4Z"/><path fill="#3E3A3B" d="M115 167h1c.25 2.313.25 2.313 0 5-1.813 1.875-1.813 1.875-4 3l-3-1a90.488 90.488 0 0 1 4-4h2v-3Z"/><path fill="#A3815D" d="M252 150c.625 1.813.625 1.813 1 4l-2 3h-2l-1 3-1-3 3-1c.672-1.936.672-1.936 1-4l1-2Z"/><path fill="#433E40" d="M79 195c6.75.75 6.75.75 9 3l-9-1v-2Z"/><path fill="#D7B786" d="m104 103 1 3c-2.313 2.5-2.313 2.5-5 5h-3l7-8Z"/><path fill="#D0A165" d="M99 127c2.325 2.853 3.75 5.54 5 9-1.938-.563-1.938-.563-4-2-.75-3.625-.75-3.625-1-7Z"/><path fill="#443F43" d="M149.563 26.938 152 27c-2.363 2.526-3.665 3.888-7 5 1.124-4.979 1.124-4.979 4.563-5.063Z"/></svg>